<svg preserveAspectRatio="none" width="56" height="58" viewBox="0 0 56 58" fill="none" xmlns="http://www.w3.org/2000/svg">
<g clip-path="url(#clip0_195_607)">
<path d="M49.42 36.8407L55.4225 39.951C56.1925 40.3497 56.1925 41.488 55.4225 41.8867L28.9345 55.6073C28.6441 55.7568 28.3242 55.8346 28 55.8346C27.6757 55.8346 27.3559 55.7568 27.0655 55.6073L0.57749 41.8867C0.404456 41.7964 0.259035 41.6581 0.157429 41.4872C0.0558231 41.3163 0.00202321 41.1195 0.00202321 40.9188C0.00202321 40.7182 0.0558231 40.5214 0.157429 40.3505C0.259035 40.1796 0.404456 40.0413 0.57749 39.951L6.58349 36.8407L25.193 46.4796C26.9605 47.3931 29.043 47.3931 30.807 46.4796L49.4165 36.8371L49.42 36.8407ZM27.0655 0.228215C27.3559 0.0787656 27.6757 0.000993729 28 0.000993729C28.3242 0.000993729 28.6441 0.0787656 28.9345 0.228215L55.4225 13.9452C55.5954 14.0361 55.7406 14.1749 55.842 14.346C55.9435 14.5172 55.9972 14.7141 55.9972 14.9149C55.9972 15.1157 55.9435 15.3126 55.842 15.4838C55.7406 15.655 55.5954 15.7937 55.4225 15.8846L28.9345 29.598C28.6441 29.7474 28.3242 29.8252 28 29.8252C27.6757 29.8252 27.3559 29.7474 27.0655 29.598L0.57749 15.8846C0.403539 15.7946 0.257227 15.6562 0.154966 15.485C0.0527036 15.3137 -0.00146484 15.1163 -0.00146484 14.9149C-0.00146484 14.7135 0.0527036 14.5161 0.154966 14.3448C0.257227 14.1736 0.403539 14.0352 0.57749 13.9452L27.0655 0.228215Z" fill="#27362F"/>
<path d="M49.42 23.838L55.4225 26.9482C56.1925 27.347 56.1925 28.4852 55.4225 28.884L28.9345 42.601C28.6442 42.7504 28.3243 42.8282 28 42.8282C27.6758 42.8282 27.3559 42.7504 27.0655 42.601L0.577542 28.884C0.404508 28.7937 0.259087 28.6553 0.157481 28.4845C0.0558751 28.3136 0.0020752 28.1168 0.0020752 27.9161C0.0020752 27.7154 0.0558751 27.5187 0.157481 27.3478C0.259087 27.1769 0.404508 27.0386 0.577542 26.9482L6.58354 23.838L25.193 33.4769C26.9605 34.3904 29.043 34.3904 30.807 33.4769L49.42 23.838Z" fill="#27362F"/>
</g>
<defs>
<clipPath id="clip0_195_607">
<rect width="56" height="58" fill="white"/>
</clipPath>
</defs>
</svg>
