<svg preserveAspectRatio="none" width="81" height="80" viewBox="0 0 81 80" fill="none" xmlns="http://www.w3.org/2000/svg">
<g clip-path="url(#clip0_195_470)">
<path d="M40.6854 0.268747C30.7249 0.0812468 21.2226 2.67812 13.0929 10.1019C-3.92031 25.6431 -4.4272 52.2519 12.0057 68.3669C14.9634 71.2675 18.4838 73.9512 22.349 75.5856C23.3583 72.2325 23.1622 68.185 22.8426 64.2062C22.7654 64.1275 22.6863 64.05 22.6274 63.9625C21.5479 62.3731 22.349 58.2225 22.349 56.3344C29.1422 57.5237 34.6749 61.2144 41.9472 59.0706C49.0638 56.9731 52.0298 46.8362 45.7555 42.0381C41.9668 39.1381 36.3455 39.5337 31.8766 40.0656C29.1935 40.3856 25.8421 41.3644 23.9892 38.545C22.8957 36.8856 24.0247 32.8131 24.2082 30.9356C24.2538 30.4625 24.3038 29.9806 24.3512 29.5056C24.8271 23.6756 25.6168 17.7831 25.6168 11.9494H54.4687V2.05937C49.8365 1.01437 45.2131 0.356247 40.6854 0.268747Z" fill="#DC514A"/>
<path d="M54.2352 2.04125V19.45H33.2416L32.1507 32.8394C36.8094 32.4788 41.1284 31.6669 45.784 32.7475C48.9752 33.49 51.971 34.9788 54.1877 37.3938C60.3728 44.1263 59.1553 56.7638 52.0539 62.4419C50.0555 64.04 47.7723 65.09 45.3612 65.765C43.135 66.4681 40.8987 66.765 38.6541 66.7863C37.8503 66.8293 37.0455 66.8516 36.2405 66.8531C32.7449 66.8531 29.2486 66.4044 25.8795 65.4731C25.0227 65.2356 23.6975 64.9063 22.8648 64.29C22.6876 64.2525 22.511 64.2125 22.3345 64.1744L22.063 75.4231C43.7001 86.7544 71.2642 74.6306 79.0243 52.3919C85.5853 33.5981 75.4249 6.97313 54.2358 2.04063L54.2352 2.04125Z" fill="#23A161"/>
</g>
<defs>
<clipPath id="clip0_195_470">
<rect width="81" height="80" fill="white"/>
</clipPath>
</defs>
</svg>
