<svg preserveAspectRatio="none" width="120" height="120" viewBox="0 0 120 120" fill="none" xmlns="http://www.w3.org/2000/svg">
<g clip-path="url(#clip0_195_611)">
<path d="M109.174 6.2278C107.493 10.2597 105.342 14.0787 102.764 17.6053C91.4709 6.31864 76.1585 -0.0224442 60.1922 -0.0243835C27.1725 -0.0243835 5.57881e-08 27.1706 5.57881e-08 60.2269C-0.000351068 68.3897 1.65675 76.4677 4.87088 83.9711C8.08501 91.4746 12.7892 98.2473 18.6984 103.879L20.9184 105.847C31.7681 114.995 45.5003 120.016 59.6916 120.024C91.0856 120.024 117.476 95.4244 119.711 64.0716C121.353 48.7237 116.851 29.3119 109.174 6.2278ZM27.2503 104.222C26.767 104.817 26.157 105.298 25.4646 105.627C24.7723 105.957 24.015 106.129 23.2481 106.129C20.4188 106.129 18.1041 103.8 18.1041 100.971C18.1041 98.1422 20.4338 95.8134 23.2481 95.8134C24.42 95.8134 25.5778 96.2194 26.4844 96.9703C28.6884 98.7516 29.0325 102.018 27.2503 104.222ZM108.924 86.1862C94.0716 105.988 62.3494 99.3141 42.0094 100.267C42.0094 100.267 38.3981 100.487 34.7709 101.08C34.7709 101.08 36.1303 100.502 37.8975 99.8297C52.1719 94.86 58.9256 93.8906 67.6022 89.4366C83.94 81.1219 100.09 62.9297 103.452 44.0025C97.23 62.2106 78.3741 77.8556 61.1925 84.2166C49.4203 88.5619 28.1569 92.7816 28.1569 92.7816L27.2972 92.3278C12.8203 85.2797 12.3816 53.9119 38.6944 43.7841C50.2172 39.345 61.2394 41.7834 73.6847 38.8134C86.9738 35.6569 102.342 25.6847 108.595 12.6816C115.599 33.4847 124.028 66.0553 108.924 86.1862Z" fill="#77BC1F"/>
</g>
<defs>
<clipPath id="clip0_195_611">
<rect width="120" height="120" fill="white"/>
</clipPath>
</defs>
</svg>
