<svg preserveAspectRatio="none" width="104" height="97" viewBox="0 0 104 97" fill="none" xmlns="http://www.w3.org/2000/svg">
<g clip-path="url(#clip0_195_515)">
<path d="M19.4204 7.67892C18.582 10.2908 18.1451 13.0005 18.1228 15.7269L22.7597 17.8207C22.6738 15.2494 22.7818 12.6755 23.0831 10.1183C23.1026 9.94402 23.1213 9.83944 23.1213 9.83944C23.1213 9.93417 23.0929 10.0236 23.0831 10.1183C22.8672 12.6471 22.864 15.1877 23.0734 17.7169C25.4764 15.81 27.77 13.7864 29.9447 11.6544C29.4875 10.5199 28.7951 9.48049 27.907 8.59564C27.0189 7.7108 25.9526 6.99783 24.7691 6.49749C24.7691 6.49749 20.6619 4.95231 19.4204 7.67892Z" fill="url(#paint0_linear_195_515)"/>
<path d="M35.5022 40.9067C35.2869 41.1288 35.061 41.3364 34.8327 41.5463C34.9505 41.4455 35.0708 41.3273 35.1821 41.2182C35.2958 41.1197 35.4015 41.0166 35.5022 40.9075V40.9067Z" fill="#BE202E"/>
<mask id="mask0_195_515" style="mask-type:luminance" maskUnits="userSpaceOnUse" x="0" y="0" width="104" height="97">
<path d="M0 0H104V97H0V0Z" fill="black" fill-opacity="0.349"/>
</mask>
<g mask="url(#mask0_195_515)">
<mask id="mask1_195_515" style="mask-type:luminance" maskUnits="userSpaceOnUse" x="0" y="0" width="104" height="97">
<path d="M0 0H104V97H0V0Z" fill="white"/>
</mask>
<g mask="url(#mask1_195_515)">
<path d="M35.5022 40.9067C35.2869 41.1288 35.061 41.3364 34.8327 41.5463C34.9505 41.4455 35.0708 41.3273 35.1821 41.2182C35.2958 41.1197 35.4015 41.0166 35.5022 40.9075V40.9067Z" fill="#BE202E"/>
</g>
</g>
<path d="M33.8017 37.4556C33.839 37.4253 33.8683 37.3905 33.9032 37.3639C34.0495 37.2275 34.1982 37.0911 34.3184 36.9525C34.1567 37.1177 33.9731 37.2783 33.7984 37.4556H33.8017Z" fill="#BE202E"/>
<mask id="mask2_195_515" style="mask-type:luminance" maskUnits="userSpaceOnUse" x="0" y="0" width="104" height="97">
<path d="M0 0H104V97H0V0Z" fill="black" fill-opacity="0.349"/>
</mask>
<g mask="url(#mask2_195_515)">
<mask id="mask3_195_515" style="mask-type:luminance" maskUnits="userSpaceOnUse" x="0" y="0" width="104" height="97">
<path d="M0 0H104V97H0V0Z" fill="white"/>
</mask>
<g mask="url(#mask3_195_515)">
<path d="M33.8017 37.4556C33.839 37.4253 33.8683 37.3905 33.9032 37.3639C34.0495 37.2275 34.1982 37.0911 34.3184 36.9525C34.1567 37.1177 33.9731 37.2783 33.7984 37.4556H33.8017Z" fill="#BE202E"/>
</g>
</g>
<path d="M23.985 30.5906C23.7715 29.1791 23.5765 27.7651 23.4 26.3491C23.2199 24.9298 23.0782 23.5064 22.975 22.0804C22.975 21.994 22.9588 21.9084 22.975 21.8341C22.8575 20.4977 22.7824 19.1583 22.75 17.8177L18.1187 15.7367C18.1187 15.9967 18.0878 16.2664 18.0748 16.5506C18.0302 17.5835 17.9952 18.6725 17.9855 19.8395C17.9855 21.1415 17.9855 22.5002 18.0115 23.9211C18.0432 25.2321 18.1033 26.5977 18.1764 27.986C18.2528 29.1727 18.3348 30.3716 18.4397 31.597V31.7364L24.635 34.6616C24.4286 33.2968 24.2043 31.938 23.985 30.5906Z" fill="url(#paint1_linear_195_515)"/>
<path d="M33.15 64.7551C33.475 65.8319 33.839 66.9452 34.2168 68.0728V68.1175C34.268 68.2827 34.3094 68.4373 34.376 68.5942C34.623 69.355 34.8578 70.0295 35.3722 71.5777C36.6153 71.5059 37.8532 71.7822 38.9268 72.3711C38.085 71.4061 36.8695 70.7892 35.5436 70.6539C37.3286 69.8062 38.8277 68.5151 39.8757 66.9229C40.9236 65.3308 41.4796 63.4996 41.4822 61.6314C41.4459 61.2999 41.395 60.97 41.3294 60.6424C41.2923 61.3802 41.0414 62.0947 40.6032 62.7099C40.1651 63.3252 39.5563 63.818 38.8415 64.1359C40.3431 62.0112 41.04 59.4794 40.8216 56.9428C40.7692 56.3142 40.6887 55.688 40.5803 55.0657C40.3993 56.6696 39.7726 58.2017 38.7623 59.5105C37.752 60.8194 36.3931 61.8597 34.8197 62.5286L32.9412 64.142C33.011 64.3428 33.0679 64.5436 33.1508 64.7543L33.15 64.7551Z" fill="url(#paint2_linear_195_515)"/>
<path d="M30.7231 59.8225C30.329 58.4524 29.935 57.061 29.536 55.6575C29.1587 54.2999 28.7925 52.9396 28.4375 51.5767C28.076 50.1998 27.7298 48.8145 27.3837 47.4315C27.0408 46.047 26.7012 44.5995 26.3843 43.1877C26.0634 41.7752 25.7652 40.3664 25.4662 38.9629C25.359 38.4537 25.2631 37.9596 25.1656 37.4473C24.9942 36.5834 24.8382 35.7096 24.67 34.8329C24.6673 34.7844 24.6567 34.7366 24.6383 34.6911L18.4779 31.7584C18.4942 31.8493 18.5007 31.941 18.5031 32.0358C18.6274 33.3354 18.7444 34.6555 18.9126 35.9764C19.0775 37.2935 19.2555 38.6727 19.4716 40.0405C19.6528 41.1924 19.8494 42.3344 20.0525 43.4886C20.0932 43.7167 20.1443 43.9569 20.1858 44.182C20.7285 46.9482 21.4214 49.6869 22.2617 52.3876C22.5282 53.2219 22.7915 54.0305 23.0612 54.7944C23.296 55.4363 23.5495 56.0819 23.7941 56.7185C24.3775 58.197 25.0278 59.6518 25.7433 61.0789L31.967 64.0185C31.6428 62.95 31.3162 61.8663 30.992 60.7652C30.9002 60.4484 30.8182 60.1392 30.7231 59.8225Z" fill="url(#paint3_linear_195_515)"/>
<path d="M25.8294 61.2555C26.6727 62.9534 27.6287 64.6005 28.6918 66.1873C28.726 66.2343 28.7609 66.3025 28.7991 66.3503C27.255 65.9565 25.6446 65.8407 24.0541 66.0093C26.9437 66.758 29.5772 68.1897 31.6997 70.1659C30.6694 71.008 29.4249 71.5899 28.0849 71.8558C29.4159 72.0604 30.7807 71.9475 32.0523 71.5277C30.8309 72.7552 29.9962 74.2732 29.64 75.9146C30.5163 74.2984 31.8767 72.9542 33.5563 72.0452C35.4266 77.8236 37.6732 84.0869 40.1684 90.6594C40.5551 90.1918 40.6632 89.5757 40.4601 89.0195C39.9994 87.8381 37.0321 80.0235 33.6489 69.4141C33.5538 69.1087 33.4677 68.8071 33.3605 68.5025C33.3312 68.4161 33.3093 68.3395 33.2808 68.2478C32.9235 67.1051 32.5701 65.9613 32.2205 64.8165C32.1417 64.5436 32.0588 64.2898 31.9792 64.0147L25.7555 61.0744C25.775 61.1373 25.7969 61.1956 25.8286 61.2555H25.8294Z" fill="url(#paint4_linear_195_515)"/>
<path d="M25.3687 34.7851C25.4069 34.9806 25.4442 35.1526 25.4792 35.3504C25.6002 35.9249 25.7083 36.5084 25.835 37.0942C25.965 37.7338 26.108 38.3847 26.2445 39.0539C26.3112 39.3911 26.381 39.7283 26.4566 40.0724C26.6825 41.103 26.927 42.1594 27.1773 43.2453C27.5015 44.5836 27.8249 45.9575 28.1864 47.3868C28.5139 48.7395 28.8941 50.149 29.2784 51.5813C29.653 52.9491 30.0308 54.3496 30.4468 55.8C30.8116 57.0815 31.2024 58.3993 31.5989 59.7399C31.5989 59.802 31.646 59.8732 31.659 59.9384C32.0704 61.3067 32.4883 62.6733 32.9127 64.0382C32.9157 64.0692 32.9254 64.0994 32.9412 64.1268L34.8197 62.5135C34.7725 62.5135 34.7376 62.5521 34.6734 62.5756C37.2264 59.9578 38.8283 56.6553 39.251 53.1386C39.4514 51.3868 39.431 49.6191 39.1901 47.8718C38.9931 46.3539 38.6922 44.8493 38.289 43.3673C37.8898 41.8799 37.4291 40.4073 36.9078 38.9531C36.5246 39.6544 36.0423 40.3046 35.4737 40.8863L35.1504 41.2182C35.0423 41.3303 34.9212 41.4281 34.801 41.5463C36.2958 39.2744 36.7809 36.5481 36.153 33.9477C35.7334 35.0461 35.1032 36.0642 34.2932 36.9525C34.1697 37.0911 34.0234 37.2275 33.8772 37.3639C33.839 37.3905 33.8105 37.4261 33.7602 37.4647C34.2742 36.6935 34.6795 35.8637 34.9659 34.9958C35.0228 34.8268 35.0715 34.6548 35.1057 34.4805C35.1723 34.2167 35.217 33.95 35.2584 33.6848C35.2747 33.5067 35.3055 33.3437 35.3218 33.1664C35.3599 32.7496 35.3599 32.3306 35.3218 31.9138C35.3218 31.7751 35.3218 31.6508 35.2869 31.5197C35.2487 31.3249 35.2235 31.1446 35.1853 30.9665C35.0499 30.2541 34.8878 29.5464 34.6994 28.8446C34.6165 28.5422 34.5369 28.2641 34.4516 28.0125C34.4134 27.9117 34.3947 27.814 34.3565 27.7071C34.255 27.4321 34.1729 27.1774 34.0835 26.9675C33.9829 26.7174 33.8685 26.4723 33.7407 26.2332C33.7094 26.3531 33.6637 26.4693 33.6042 26.5795C33.0593 27.6185 32.3478 28.574 31.4941 29.413L33.2239 27.9352L31.4811 29.4039C31.4666 29.4125 31.4564 29.4261 31.4527 29.4418C31.363 29.5255 31.2782 29.6135 31.1984 29.7055C31.1984 29.685 31.2309 29.6676 31.2333 29.6494L25.3183 34.6964C25.3654 34.7343 25.3719 34.7646 25.3687 34.7851Z" fill="url(#paint5_linear_195_515)"/>
<path d="M23.0734 17.7169C23.1465 18.9302 23.2602 20.2889 23.4008 21.7932C23.4041 21.8697 23.413 21.95 23.4292 22.0266C23.5625 23.3414 23.7339 24.7562 23.9557 26.2984C24.1426 27.6306 24.3531 29.028 24.6066 30.5436C24.8162 31.8547 25.0762 33.2286 25.3427 34.6874L31.2593 29.6343C32.2644 28.1397 32.7805 26.4042 32.7446 24.6403C32.7446 24.2083 32.7096 23.7529 32.6714 23.2853C32.5794 21.8314 32.4077 20.3829 32.1571 18.9453C31.9389 17.6312 31.6454 16.3289 31.278 15.0441C31.0862 14.3739 30.8595 13.7128 30.5987 13.0632C30.3971 12.5994 30.1803 12.1415 29.9487 11.69C27.7668 13.8053 25.4721 15.8168 23.0734 17.7169Z" fill="url(#paint6_linear_195_515)"/>
<path d="M35.1885 41.2235C35.0805 41.3364 34.9594 41.4342 34.8392 41.5524C34.9492 41.437 35.0658 41.3272 35.1885 41.2235" fill="#BE202E"/>
<mask id="mask4_195_515" style="mask-type:luminance" maskUnits="userSpaceOnUse" x="0" y="0" width="104" height="97">
<path d="M0 0H104V97H0V0Z" fill="black" fill-opacity="0.349"/>
</mask>
<g mask="url(#mask4_195_515)">
<mask id="mask5_195_515" style="mask-type:luminance" maskUnits="userSpaceOnUse" x="0" y="0" width="104" height="97">
<path d="M0 0H104V97H0V0Z" fill="white"/>
</mask>
<g mask="url(#mask5_195_515)">
<path d="M35.1885 41.2235C35.0805 41.3364 34.9594 41.4342 34.8392 41.5524C34.9492 41.437 35.0658 41.3272 35.1885 41.2235" fill="#BE202E"/>
</g>
</g>
<path d="M35.1885 41.2235C35.0805 41.3364 34.9594 41.4342 34.8392 41.5524C34.9492 41.437 35.0658 41.3272 35.1885 41.2235Z" fill="url(#paint7_linear_195_515)"/>
<path d="M33.8016 37.4647C33.839 37.4344 33.8683 37.3996 33.9154 37.364C33.8772 37.3905 33.8488 37.4261 33.8016 37.4647Z" fill="#BE202E"/>
<mask id="mask6_195_515" style="mask-type:luminance" maskUnits="userSpaceOnUse" x="0" y="0" width="104" height="97">
<path d="M0 0H104V97H0V0Z" fill="black" fill-opacity="0.349"/>
</mask>
<g mask="url(#mask6_195_515)">
<mask id="mask7_195_515" style="mask-type:luminance" maskUnits="userSpaceOnUse" x="0" y="0" width="104" height="97">
<path d="M0 0H104V97H0V0Z" fill="white"/>
</mask>
<g mask="url(#mask7_195_515)">
<path d="M33.8016 37.4647C33.839 37.4344 33.8683 37.3996 33.9154 37.364C33.8772 37.3905 33.8488 37.4261 33.8016 37.4647Z" fill="#BE202E"/>
</g>
</g>
<path d="M33.8016 37.4647C33.839 37.4344 33.8683 37.3996 33.9154 37.364C33.8772 37.3905 33.8488 37.4261 33.8016 37.4647Z" fill="url(#paint8_linear_195_515)"/>
<path d="M80.0378 8.76259C77.143 10.2481 74.4877 12.1077 72.1509 14.2863L74.0992 19.4099C76.2195 17.2747 78.5011 15.2841 80.9267 13.4534C81.0916 13.3269 81.1932 13.2526 81.1932 13.2526C81.1071 13.3269 81.0087 13.3792 80.9267 13.4534C78.5907 15.3236 76.4173 17.3642 74.4267 19.5546C77.9814 19.8009 81.5482 19.8751 85.1127 19.7744C85.7131 18.5201 86.0423 17.1678 86.0815 15.7947C86.1207 14.4216 85.869 13.0548 85.341 11.7726C85.341 11.7726 83.3544 7.48719 80.0378 8.76259Z" fill="url(#paint9_linear_195_515)"/>
<path d="M64.6766 47.4285C64.311 47.445 63.9494 47.445 63.5911 47.445H64.1493C64.324 47.4479 64.4987 47.4421 64.6766 47.4285Z" fill="#BE202E"/>
<mask id="mask8_195_515" style="mask-type:luminance" maskUnits="userSpaceOnUse" x="0" y="0" width="104" height="97">
<path d="M0 0H104V97H0V0Z" fill="black" fill-opacity="0.349"/>
</mask>
<g mask="url(#mask8_195_515)">
<mask id="mask9_195_515" style="mask-type:luminance" maskUnits="userSpaceOnUse" x="0" y="0" width="104" height="97">
<path d="M0 0H104V97H0V0Z" fill="white"/>
</mask>
<g mask="url(#mask9_195_515)">
<path d="M64.6766 47.4285C64.311 47.445 63.9494 47.445 63.5911 47.445H64.1493C64.324 47.4479 64.4987 47.4421 64.6766 47.4285Z" fill="#BE202E"/>
</g>
</g>
<path d="M66.2472 43.3908H66.4097C66.6437 43.3908 66.8793 43.3908 67.1003 43.3643C66.8249 43.3643 66.5397 43.3643 66.2504 43.3817L66.2472 43.3908Z" fill="#BE202E"/>
<mask id="mask10_195_515" style="mask-type:luminance" maskUnits="userSpaceOnUse" x="0" y="0" width="104" height="97">
<path d="M0 0H104V97H0V0Z" fill="black" fill-opacity="0.349"/>
</mask>
<g mask="url(#mask10_195_515)">
<mask id="mask11_195_515" style="mask-type:luminance" maskUnits="userSpaceOnUse" x="0" y="0" width="104" height="97">
<path d="M0 0H104V97H0V0Z" fill="white"/>
</mask>
<g mask="url(#mask11_195_515)">
<path d="M66.2472 43.3908H66.4097C66.6437 43.3908 66.8793 43.3908 67.1003 43.3643C66.8249 43.3643 66.5397 43.3643 66.2504 43.3817L66.2472 43.3908Z" fill="#BE202E"/>
</g>
</g>
<path d="M64.1907 30.5876C65.2253 29.2931 66.2738 28.0083 67.3359 26.7334C68.4031 25.4597 69.5016 24.2093 70.6306 22.9829C70.694 22.9064 70.7639 22.8352 70.824 22.773C71.8804 21.6229 72.964 20.4947 74.074 19.3894L72.1256 14.2802C71.8932 14.4848 71.6462 14.6856 71.3952 14.9016C70.4213 15.7449 69.4638 16.6044 68.523 17.4797C67.3536 18.5683 66.2003 19.6717 65.0634 20.7898C63.9391 21.9052 62.8313 23.035 61.7402 24.1788C60.7735 25.2047 59.8182 26.2399 58.8746 27.2843L58.7632 27.4025L61.2552 34.3471C62.2481 33.0952 63.2198 31.8274 64.1907 30.5876Z" fill="url(#paint10_linear_195_515)"/>
<path d="M42.4564 64.8703C41.8064 65.9888 41.1547 67.1437 40.4885 68.3304C40.4885 68.3456 40.4666 68.36 40.4633 68.3751C40.365 68.5494 40.2667 68.7033 40.1871 68.8753C39.7361 69.671 39.3559 70.3909 38.4507 72.0157C39.5127 72.8798 40.2742 74.0196 40.638 75.2894C40.7799 73.8901 40.3274 72.4948 39.3778 71.4034C44.4397 72.315 49.0384 71.708 51.8448 68.5404C52.0886 68.2531 52.3299 67.9515 52.5614 67.6287C51.9029 68.1951 51.0918 68.5841 50.2148 68.7541C49.3377 68.9242 48.4276 68.8689 47.5816 68.5942C50.6013 67.9938 53.3193 66.4695 55.3036 64.2633C55.7952 63.7162 56.2633 63.1512 56.7068 62.5695C55.1956 63.7278 53.3863 64.4976 51.4579 64.803C49.5296 65.1083 47.5492 64.9384 45.7129 64.3102L42.8244 64.2155C42.7009 64.4466 42.5734 64.6513 42.4564 64.8703Z" fill="url(#paint11_linear_195_515)"/>
<path d="M44.7127 59.1094C45.5634 57.712 46.4327 56.3032 47.3127 54.8641C48.1646 53.49 49.0321 52.1243 49.9151 50.7674C50.8064 49.3973 51.6986 48.0203 52.5964 46.6472C53.519 45.2478 54.4588 43.8584 55.4157 42.4792C56.3704 41.0962 57.3227 39.7526 58.2717 38.3999C58.6168 37.912 58.969 37.4285 59.3279 36.9494C59.9284 36.1234 60.5442 35.2974 61.1593 34.4774C61.1853 34.4327 61.2259 34.3857 61.2519 34.338L58.7917 27.4146C58.7259 27.499 58.654 27.579 58.5764 27.6541C57.5672 28.7938 56.5419 29.9457 55.5384 31.1385C54.5391 32.3283 53.5169 33.5635 52.5265 34.8268C51.6922 35.8877 50.8691 36.9563 50.0573 38.0323C49.8956 38.246 49.7307 38.4764 49.5755 38.6901C48.6005 40.0519 47.6547 41.3864 46.8236 42.6686C45.9273 44.0354 45.0722 45.4252 44.2593 46.8366C43.7768 47.6741 43.3068 48.5179 42.8496 49.3677C42.4913 50.0573 42.1452 50.7643 41.8023 51.457C41.0134 53.0794 40.2967 54.7316 39.6541 56.4093L42.1582 63.3812C42.8082 62.274 43.4785 61.1729 44.1447 60.0445C44.3227 59.7459 44.5258 59.4383 44.7135 59.1094H44.7127Z" fill="url(#paint12_linear_195_515)"/>
<path d="M39.5525 56.6404C38.7865 58.6336 38.1537 60.6692 37.6577 62.7355C37.6577 62.8007 37.6163 62.881 37.6065 62.9462C36.699 61.4845 35.5012 60.1975 34.077 59.1541C35.7633 61.8996 36.6642 65.0035 36.6933 68.1675C35.1456 68.0815 33.6474 67.627 32.3415 66.8474C33.2366 67.9988 34.4303 68.9195 35.8109 69.5232C33.7834 69.6075 31.8199 70.2108 30.1356 71.267C32.2171 70.6163 34.4566 70.5445 36.5812 71.0601C33.1508 77.09 29.64 83.7974 26.0479 90.9375C26.3958 90.894 26.7267 90.7703 27.0104 90.5775C27.2941 90.3847 27.5218 90.1289 27.6729 89.8334C28.3229 88.5428 32.5829 80.0561 38.8952 69.0026C39.0731 68.7003 39.2632 68.3812 39.4412 68.0523L39.5907 67.7886C40.2602 66.6367 40.9484 65.453 41.6625 64.242C41.8307 63.9617 41.9867 63.6949 42.1517 63.416V63.4016L39.6475 56.4297C39.6094 56.498 39.5777 56.5692 39.5525 56.6404Z" fill="url(#paint13_linear_195_515)"/>
<path d="M61.7313 34.9928C61.5948 35.1731 61.477 35.3451 61.3413 35.5255C60.9472 36.0787 60.5369 36.6266 60.1412 37.1927C59.6984 37.8229 59.2507 38.4501 58.7982 39.0743C58.5699 39.3972 58.3383 39.717 58.1035 40.0542C57.4047 41.0522 56.7035 42.0821 55.9772 43.1423C55.0593 44.4943 54.1547 45.8542 53.2634 47.2216C52.3555 48.6113 51.4571 50.0065 50.5684 51.407C49.7055 52.7832 48.8199 54.1927 47.9188 55.6522C47.1185 56.9542 46.3125 58.3046 45.4813 59.6868C45.4366 59.7459 45.4049 59.8255 45.3602 59.8877C44.5229 61.2981 43.6947 62.7132 42.8756 64.1329C42.8496 64.1599 42.8309 64.1924 42.8212 64.2276L45.7096 64.3193C45.6584 64.2958 45.604 64.289 45.5349 64.2633C49.8208 64.0439 53.9234 62.5698 57.2593 60.0506C58.9142 58.7918 60.4063 57.3574 61.7053 55.7765C62.8351 54.4058 63.873 52.9713 64.8131 51.4812C65.7596 49.9879 66.6424 48.4602 67.4594 46.9018C66.5551 47.1822 65.615 47.3489 64.6636 47.3928L64.1144 47.4194H63.5562C66.6938 46.697 69.4057 44.8619 71.1157 42.3041C69.8426 42.8781 68.4683 43.2312 67.0597 43.3461C66.8403 43.3673 66.6063 43.3673 66.3715 43.3696H66.1927C67.2614 43.1299 68.293 42.764 69.2624 42.2806C69.4525 42.1889 69.6402 42.0882 69.8181 41.976C70.0968 41.8131 70.3576 41.6327 70.6176 41.4486C70.7858 41.3212 70.9442 41.2061 71.11 41.0787C71.4935 40.768 71.8461 40.4308 72.1695 40.0633C72.2808 39.9451 72.3856 39.8412 72.4742 39.717C72.6107 39.5366 72.7439 39.3706 72.8617 39.1994C73.3672 38.5265 73.8437 37.835 74.2901 37.1268C74.4802 36.8251 74.6517 36.5379 74.8012 36.2712C74.8548 36.1621 74.9214 36.0704 74.9783 35.9696C75.1343 35.6642 75.283 35.4042 75.391 35.1671C75.521 34.8942 75.6389 34.6139 75.7372 34.3259C75.6098 34.4 75.4734 34.4598 75.3309 34.504C74.008 34.937 72.6218 35.1788 71.2205 35.2209C71.2018 35.2118 71.1823 35.2118 71.1669 35.2209C71.0272 35.2149 70.8873 35.2149 70.7476 35.2209C70.7704 35.2209 70.8045 35.2209 70.824 35.1966L61.7565 34.892C61.7727 34.948 61.75 34.9776 61.7313 34.9928Z" fill="url(#paint14_linear_195_515)"/>
<path d="M74.4266 19.5584C73.3342 20.7156 72.2653 21.8919 71.2205 23.0868C71.1539 23.1519 71.0937 23.2232 71.0425 23.2967C69.9463 24.5555 68.8745 25.8326 67.8275 27.1274C66.8533 28.3384 65.8125 29.6259 64.727 31.0377C63.778 32.2487 62.8192 33.5506 61.8004 34.9185L70.8679 35.2231C72.9507 34.7661 74.8458 33.7531 76.3214 32.3078C76.6963 31.9345 77.0623 31.5535 77.419 31.165C78.5777 29.9214 79.6699 28.6252 80.6918 27.2812C81.6292 26.0608 82.4968 24.795 83.291 23.4892C83.7096 22.8095 84.0899 22.1098 84.4301 21.393C84.6812 20.8398 84.89 20.3162 85.0801 19.8039C81.5262 19.8895 77.9707 19.8069 74.4266 19.5584Z" fill="url(#paint15_linear_195_515)"/>
<path d="M64.1493 47.4546H63.5911C63.7771 47.446 63.9634 47.446 64.1493 47.4546" fill="#BE202E"/>
<mask id="mask12_195_515" style="mask-type:luminance" maskUnits="userSpaceOnUse" x="0" y="0" width="104" height="97">
<path d="M0 0H104V97H0V0Z" fill="black" fill-opacity="0.349"/>
</mask>
<g mask="url(#mask12_195_515)">
<mask id="mask13_195_515" style="mask-type:luminance" maskUnits="userSpaceOnUse" x="0" y="0" width="104" height="97">
<path d="M0 0H104V97H0V0Z" fill="white"/>
</mask>
<g mask="url(#mask13_195_515)">
<path d="M64.1493 47.4546H63.5911C63.7771 47.446 63.9634 47.446 64.1493 47.4546" fill="#BE202E"/>
</g>
</g>
<path d="M64.1493 47.4546H63.5911C63.7771 47.446 63.9634 47.446 64.1493 47.4546Z" fill="url(#paint16_linear_195_515)"/>
</g>
<defs>
<linearGradient id="paint0_linear_195_515" x1="17.6462" y1="6.94296" x2="28.0121" y2="-7.1563" gradientUnits="userSpaceOnUse">
<stop stop-color="#F69923"/>
<stop offset="0.312" stop-color="#F79A23"/>
<stop offset="0.838" stop-color="#E97826"/>
</linearGradient>
<linearGradient id="paint1_linear_195_515" x1="33.2144" y1="87.7111" x2="18.7953" y2="9.74029" gradientUnits="userSpaceOnUse">
<stop offset="0.323" stop-color="#9E2064"/>
<stop offset="0.63" stop-color="#C92037"/>
<stop offset="0.751" stop-color="#CD2335"/>
<stop offset="1" stop-color="#E97826"/>
</linearGradient>
<linearGradient id="paint2_linear_195_515" x1="39.5833" y1="76.7992" x2="30.991" y2="30.3364" gradientUnits="userSpaceOnUse">
<stop stop-color="#282662"/>
<stop offset="0.095" stop-color="#662E8D"/>
<stop offset="0.788" stop-color="#9F2064"/>
<stop offset="0.949" stop-color="#CD2032"/>
</linearGradient>
<linearGradient id="paint3_linear_195_515" x1="31.5198" y1="83.4955" x2="17.1006" y2="5.52469" gradientUnits="userSpaceOnUse">
<stop offset="0.323" stop-color="#9E2064"/>
<stop offset="0.63" stop-color="#C92037"/>
<stop offset="0.751" stop-color="#CD2335"/>
<stop offset="1" stop-color="#E97826"/>
</linearGradient>
<linearGradient id="paint4_linear_195_515" x1="31.4565" y1="77.626" x2="23.8788" y2="36.6503" gradientUnits="userSpaceOnUse">
<stop stop-color="#282662"/>
<stop offset="0.095" stop-color="#662E8D"/>
<stop offset="0.788" stop-color="#9F2064"/>
<stop offset="0.949" stop-color="#CD2032"/>
</linearGradient>
<linearGradient id="paint5_linear_195_515" x1="40.1281" y1="81.9035" x2="25.709" y2="3.93273" gradientUnits="userSpaceOnUse">
<stop offset="0.323" stop-color="#9E2064"/>
<stop offset="0.63" stop-color="#C92037"/>
<stop offset="0.751" stop-color="#CD2335"/>
<stop offset="1" stop-color="#E97826"/>
</linearGradient>
<linearGradient id="paint6_linear_195_515" x1="40.7344" y1="86.7937" x2="26.3152" y2="8.82288" gradientUnits="userSpaceOnUse">
<stop offset="0.323" stop-color="#9E2064"/>
<stop offset="0.63" stop-color="#C92037"/>
<stop offset="0.751" stop-color="#CD2335"/>
<stop offset="1" stop-color="#E97826"/>
</linearGradient>
<linearGradient id="paint7_linear_195_515" x1="42.7068" y1="81.4268" x2="28.2874" y2="3.45575" gradientUnits="userSpaceOnUse">
<stop offset="0.323" stop-color="#9E2064"/>
<stop offset="0.63" stop-color="#C92037"/>
<stop offset="0.751" stop-color="#CD2335"/>
<stop offset="1" stop-color="#E97826"/>
</linearGradient>
<linearGradient id="paint8_linear_195_515" x1="42.4041" y1="81.4824" x2="27.985" y2="3.51199" gradientUnits="userSpaceOnUse">
<stop offset="0.323" stop-color="#9E2064"/>
<stop offset="0.63" stop-color="#C92037"/>
<stop offset="0.751" stop-color="#CD2335"/>
<stop offset="1" stop-color="#E97826"/>
</linearGradient>
<linearGradient id="paint9_linear_195_515" x1="67.7214" y1="12.0771" x2="88.2765" y2="9.3382" gradientUnits="userSpaceOnUse">
<stop stop-color="#F69923"/>
<stop offset="0.312" stop-color="#F79A23"/>
<stop offset="0.838" stop-color="#E97826"/>
</linearGradient>
<linearGradient id="paint10_linear_195_515" x1="11.1855" y1="88.8679" x2="59.2493" y2="10.873" gradientUnits="userSpaceOnUse">
<stop offset="0.323" stop-color="#9E2064"/>
<stop offset="0.63" stop-color="#C92037"/>
<stop offset="0.751" stop-color="#CD2335"/>
<stop offset="1" stop-color="#E97826"/>
</linearGradient>
<linearGradient id="paint11_linear_195_515" x1="25.6632" y1="84.7991" x2="54.3046" y2="38.3217" gradientUnits="userSpaceOnUse">
<stop stop-color="#282662"/>
<stop offset="0.095" stop-color="#662E8D"/>
<stop offset="0.788" stop-color="#9F2064"/>
<stop offset="0.949" stop-color="#CD2032"/>
</linearGradient>
<linearGradient id="paint12_linear_195_515" x1="13.4242" y1="84.2033" x2="61.488" y2="6.20844" gradientUnits="userSpaceOnUse">
<stop offset="0.323" stop-color="#9E2064"/>
<stop offset="0.63" stop-color="#C92037"/>
<stop offset="0.751" stop-color="#CD2335"/>
<stop offset="1" stop-color="#E97826"/>
</linearGradient>
<linearGradient id="paint13_linear_195_515" x1="18.3949" y1="79.4179" x2="43.6537" y2="38.4295" gradientUnits="userSpaceOnUse">
<stop stop-color="#282662"/>
<stop offset="0.095" stop-color="#662E8D"/>
<stop offset="0.788" stop-color="#9F2064"/>
<stop offset="0.949" stop-color="#CD2032"/>
</linearGradient>
<linearGradient id="paint14_linear_195_515" x1="21.7357" y1="89.3253" x2="69.7996" y2="11.3304" gradientUnits="userSpaceOnUse">
<stop offset="0.323" stop-color="#9E2064"/>
<stop offset="0.63" stop-color="#C92037"/>
<stop offset="0.751" stop-color="#CD2335"/>
<stop offset="1" stop-color="#E97826"/>
</linearGradient>
<linearGradient id="paint15_linear_195_515" x1="18.0408" y1="93.724" x2="66.1047" y2="15.7291" gradientUnits="userSpaceOnUse">
<stop offset="0.323" stop-color="#9E2064"/>
<stop offset="0.63" stop-color="#C92037"/>
<stop offset="0.751" stop-color="#CD2335"/>
<stop offset="1" stop-color="#E97826"/>
</linearGradient>
<linearGradient id="paint16_linear_195_515" x1="24.2253" y1="88.6219" x2="68.6908" y2="12.5441" gradientUnits="userSpaceOnUse">
<stop offset="0.323" stop-color="#9E2064"/>
<stop offset="0.63" stop-color="#C92037"/>
<stop offset="0.751" stop-color="#CD2335"/>
<stop offset="1" stop-color="#E97826"/>
</linearGradient>
<clipPath id="clip0_195_515">
<rect width="104" height="97" fill="white"/>
</clipPath>
</defs>
</svg>
