<svg preserveAspectRatio="none" width="95" height="91" viewBox="0 0 95 91" fill="none" xmlns="http://www.w3.org/2000/svg">
<g clip-path="url(#clip0_195_491)">
<path d="M33.7695 91.7109C42.6016 91.7109 49.7266 84.8859 49.7266 76.4258V61.1406H33.7695C24.9375 61.1406 17.8125 67.9656 17.8125 76.4258C17.8125 84.8859 24.9375 91.7109 33.7695 91.7109Z" fill="#0ACF83"/>
<path d="M17.8125 45.8555C17.8125 37.3953 24.9375 30.5703 33.7695 30.5703H49.7266V61.1406H33.7695C24.9375 61.1406 17.8125 54.3156 17.8125 45.8555Z" fill="#A259FF"/>
<path d="M17.8125 15.2852C17.8125 6.825 24.9375 0 33.7695 0H49.7266V30.5703H33.7695C24.9375 30.5703 17.8125 23.7453 17.8125 15.2852Z" fill="#F24E1E"/>
<path d="M49.7266 0H65.6836C74.5156 0 81.6406 6.825 81.6406 15.2852C81.6406 23.7453 74.5156 30.5703 65.6836 30.5703H49.7266V0Z" fill="#FF7262"/>
<path d="M81.6406 45.8555C81.6406 54.3156 74.5156 61.1406 65.6836 61.1406C56.8516 61.1406 49.7266 54.3156 49.7266 45.8555C49.7266 37.3953 56.8516 30.5703 65.6836 30.5703C74.5156 30.5703 81.6406 37.3953 81.6406 45.8555Z" fill="#1ABCFE"/>
</g>
<defs>
<clipPath id="clip0_195_491">
<rect width="95" height="91" fill="white"/>
</clipPath>
</defs>
</svg>
