<svg preserveAspectRatio="none" width="83" height="84" viewBox="0 0 83 84" fill="none" xmlns="http://www.w3.org/2000/svg">
<g clip-path="url(#clip0_195_504)">
<path d="M75.5119 4.35927C74.3494 7.18159 72.8613 9.8549 71.0785 12.3235C63.2674 4.42285 52.6763 -0.0159078 41.6329 -0.0172653C18.7943 -0.0172653 3.85868e-08 19.0192 3.85868e-08 42.1586C-0.000242822 47.8726 1.14592 53.5272 3.36903 58.7796C5.59213 64.032 8.84588 68.7729 12.9331 72.7149L14.4686 74.093C21.9729 80.4963 31.471 84.011 41.2867 84.0169C63.0009 84.0169 81.2544 66.7969 82.8003 44.8499C83.9357 34.1064 80.8219 20.5181 75.5119 4.35927ZM18.8481 72.9551C18.5139 73.3719 18.0919 73.7081 17.613 73.939C17.1342 74.1699 16.6104 74.2898 16.08 74.2899C14.123 74.2899 12.522 72.6598 12.522 70.6792C12.522 68.6993 14.1333 67.0692 16.08 67.0692C16.8905 67.0692 17.6913 67.3534 18.3184 67.879C19.8428 69.1259 20.0808 71.4123 18.8481 72.9551ZM75.3394 60.3302C65.0662 74.1915 43.125 69.5196 29.0565 70.1871C29.0565 70.1871 26.5587 70.3406 24.0499 70.756C24.0499 70.756 24.9901 70.3511 26.2124 69.8806C36.0855 66.4018 40.7569 65.7232 46.7582 62.6054C58.0585 56.7851 69.2291 44.0506 71.5544 30.8015C67.2508 43.5472 54.2087 54.4987 42.3248 58.9514C34.1824 61.9931 19.4752 64.9469 19.4752 64.9469L18.8806 64.6293C8.86738 59.6956 8.56391 37.7381 26.7636 30.6486C34.7336 27.5413 42.3572 29.2482 50.9652 27.1692C60.1568 24.9596 70.7867 17.9791 75.1118 8.87689C79.9562 23.4391 85.7857 46.2385 75.3394 60.3302Z" fill="#77BC1F"/>
</g>
<defs>
<clipPath id="clip0_195_504">
<rect width="83" height="84" fill="white"/>
</clipPath>
</defs>
</svg>
