<svg preserveAspectRatio="none" width="380" height="368" viewBox="0 0 380 368" fill="none" xmlns="http://www.w3.org/2000/svg">
<g clip-path="url(#clip0_178_33)">
<path d="M166.398 25.7124L342.739 69.465L346.111 92.0775L323.947 95.2889C324.404 98.351 323.616 101.172 321.583 103.753C319.55 106.333 316.918 107.858 313.686 108.326L49.4553 146.611C46.2231 147.079 43.257 146.366 40.5569 144.471C37.8568 142.577 36.2785 140.098 35.8219 137.036L13.6584 140.247L10.2866 117.635L166.398 25.7124ZM61.3572 156.437L105.684 150.014L125.915 285.689L148.078 282.478L127.848 146.803L172.175 140.381L192.405 276.056L214.569 272.844L194.338 137.169L238.665 130.747L258.896 266.422L281.059 263.21L260.829 127.535L305.156 121.113L325.386 256.788L335.602 255.307C338.834 254.839 341.801 255.552 344.501 257.447C347.201 259.342 348.779 261.82 349.236 264.883L350.922 276.189L62.796 317.936L61.1102 306.63C60.6536 303.568 61.4416 300.746 63.4744 298.166C65.5071 295.585 68.1396 294.061 71.3718 293.592L81.5878 292.112L61.3572 156.437ZM362.823 286.015C366.056 285.547 369.022 286.26 371.722 288.155C374.422 290.049 376 292.528 376.457 295.59L379.829 318.203L47.3761 366.372L44.0043 343.76C43.5477 340.698 44.3358 337.876 46.3685 335.296C48.4013 332.715 51.0338 331.191 54.2659 330.722L362.823 286.015Z" fill="white"/>
</g>
<defs>
<clipPath id="clip0_178_33">
<rect width="336" height="320" fill="white" transform="translate(0.121277 50.6956) rotate(-8.53203)"/>
</clipPath>
</defs>
</svg>
