<svg preserveAspectRatio="none" width="130" height="130" viewBox="0 0 130 130" fill="none" xmlns="http://www.w3.org/2000/svg">
<path d="M108.333 21.6667H21.6667C15.7083 21.6667 10.8875 26.5417 10.8875 32.5L10.8333 97.5C10.8333 103.458 15.7083 108.333 21.6667 108.333H108.333C114.292 108.333 119.167 103.458 119.167 97.5V32.5C119.167 26.5417 114.292 21.6667 108.333 21.6667ZM106.167 44.6875L67.8708 68.6292C66.1375 69.7125 63.8625 69.7125 62.1292 68.6292L23.8333 44.6875C23.2902 44.3826 22.8146 43.9707 22.4352 43.4766C22.0559 42.9826 21.7808 42.4167 21.6264 41.8132C21.4721 41.2098 21.4419 40.5813 21.5375 39.9658C21.6331 39.3503 21.8527 38.7606 22.1828 38.2325C22.5129 37.7043 22.9468 37.2485 23.4581 36.8929C23.9694 36.5372 24.5476 36.289 25.1577 36.1633C25.7677 36.0375 26.3969 36.0369 27.0073 36.1614C27.6176 36.2859 28.1963 36.5329 28.7083 36.8875L65 59.5833L101.292 36.8875C101.804 36.5329 102.382 36.2859 102.993 36.1614C103.603 36.0369 104.232 36.0375 104.842 36.1633C105.452 36.289 106.031 36.5372 106.542 36.8929C107.053 37.2485 107.487 37.7043 107.817 38.2325C108.147 38.7606 108.367 39.3503 108.462 39.9658C108.558 40.5813 108.528 41.2098 108.374 41.8132C108.219 42.4167 107.944 42.9826 107.565 43.4766C107.185 43.9707 106.71 44.3826 106.167 44.6875Z" fill="#27362F"/>
</svg>
