<svg preserveAspectRatio="none" width="57" height="86" viewBox="0 0 57 86" fill="none" xmlns="http://www.w3.org/2000/svg">
<g clip-path="url(#clip0_195_506)">
<path d="M18.3812 66.4817C18.3812 66.4817 15.4426 68.3894 20.4726 69.0349C26.5665 69.8109 29.6808 69.6998 36.3963 68.2808C36.3963 68.2808 38.162 69.5166 40.6274 70.5871C25.5734 77.7895 6.55681 70.1698 18.3812 66.4817ZM16.5416 57.0829C16.5416 57.0829 13.2456 59.8065 18.2794 60.3877C24.789 61.1373 29.9297 61.1987 38.8253 59.2866C38.8253 59.2866 40.0557 60.679 41.9903 61.4405C23.7888 67.382 3.51577 61.9091 16.5416 57.0829Z" fill="#5382A1"/>
<path d="M32.0496 41.1396C35.759 45.9068 31.075 50.1969 31.075 50.1969C31.075 50.1969 40.4936 44.7692 36.168 37.9722C32.1282 31.6341 29.0299 28.4844 45.8019 17.626C45.8019 17.626 19.4755 24.9661 32.0496 41.1396Z" fill="#E76F00"/>
<path d="M51.9599 73.4336C51.9599 73.4336 54.1346 75.4337 49.5648 76.9812C40.8754 79.9198 13.3983 80.8072 5.76522 77.0983C3.02143 75.766 8.16701 73.9168 9.7855 73.5285C11.4735 73.1199 12.4382 73.1962 12.4382 73.1962C9.38672 70.7964 -7.28533 77.908 3.96972 79.9445C34.6636 85.5011 59.9215 77.4425 51.9599 73.4336ZM19.7941 47.3447C19.7941 47.3447 5.81777 51.0507 14.8449 52.3961C18.6563 52.9658 26.2545 52.8371 33.3321 52.1749C39.1162 51.6306 44.9242 50.4723 44.9242 50.4723C44.9242 50.4723 42.8847 51.4474 41.4091 52.5721C27.2161 56.7391 -0.202189 54.8006 7.6912 50.5382C14.3667 46.9361 19.7941 47.3447 19.7941 47.3447ZM44.8665 62.9893C59.2947 54.6199 52.6237 46.5772 47.9675 47.6609C46.8261 47.9259 46.3174 48.1555 46.3174 48.1555C46.3174 48.1555 46.7411 47.4148 47.5502 47.0942C56.7615 43.479 63.8458 57.7565 44.5767 63.4111C44.5767 63.4113 44.8 63.1886 44.8665 62.9893Z" fill="#5382A1"/>
<path d="M36.1681 0.0922133C36.1681 0.0922133 44.1585 9.01533 28.5895 22.7358C16.105 33.7423 25.7426 40.0178 28.5844 47.1879C21.2969 39.8481 15.9487 33.3866 19.5368 27.3731C24.8028 18.5452 39.3919 14.2656 36.1681 0.0922133Z" fill="#E76F00"/>
<path d="M21.212 85.6682C35.061 86.6579 56.3276 85.1191 56.8312 77.8039C56.8312 77.8039 55.8631 80.5773 45.3858 82.7795C33.5654 85.2625 18.9868 84.9727 10.3399 83.3812C10.3401 83.3812 12.1098 85.0167 21.212 85.6682Z" fill="#5382A1"/>
</g>
<defs>
<clipPath id="clip0_195_506">
<rect width="57" height="86" fill="white"/>
</clipPath>
</defs>
</svg>
