<svg preserveAspectRatio="none" width="78" height="113" viewBox="0 0 78 113" fill="none" xmlns="http://www.w3.org/2000/svg">
<g clip-path="url(#clip0_195_613)">
<path d="M19.5 113C30.264 113 39 104.563 39 94.1667V75.3333H19.5C8.736 75.3333 0 83.7707 0 94.1667C0 104.563 8.736 113 19.5 113Z" fill="#0ACF83"/>
<path d="M0 56.5C0 46.104 8.736 37.6667 19.5 37.6667H39V75.3333H19.5C8.736 75.3333 0 66.896 0 56.5Z" fill="#A259FF"/>
<path d="M0 18.8333C0 8.43733 8.736 0 19.5 0H39V37.6667H19.5C8.736 37.6667 0 29.2293 0 18.8333Z" fill="#F24E1E"/>
<path d="M39 0H58.5C69.264 0 78 8.43733 78 18.8333C78 29.2293 69.264 37.6667 58.5 37.6667H39V0Z" fill="#FF7262"/>
<path d="M78 56.5C78 66.896 69.264 75.3333 58.5 75.3333C47.736 75.3333 39 66.896 39 56.5C39 46.104 47.736 37.6667 58.5 37.6667C69.264 37.6667 78 46.104 78 56.5Z" fill="#1ABCFE"/>
</g>
<defs>
<clipPath id="clip0_195_613">
<rect width="78" height="113" fill="white"/>
</clipPath>
</defs>
</svg>
