<svg preserveAspectRatio="none" width="102" height="81" viewBox="0 0 102 81" fill="none" xmlns="http://www.w3.org/2000/svg">
<g clip-path="url(#clip0_195_603)">
<path d="M30.343 53.45L33.4428 65.1676C34.1393 67.8281 34.4298 69.6853 34.3134 70.7439C36.0088 65.454 37.1933 59.6893 37.8673 53.45H41.5947C39.992 63.6077 37.8781 70.9892 35.2541 75.5939C33.2098 79.1423 30.9701 80.9165 28.5313 80.9165C27.8811 80.9165 27.0794 80.6876 26.1281 80.2332V77.7846C26.5929 77.864 27.1382 77.9064 27.7653 77.9064C28.9031 77.9064 29.8201 77.539 30.5177 76.8059C31.353 75.9125 31.7712 74.9085 31.7712 73.7956C31.7712 73.0358 31.4451 71.4764 30.7958 69.1174L26.4768 53.45H30.343ZM6.61864 46.248L12.2964 66.4297H12.3314L18.044 46.248H22.7113C23.7333 56.2567 24.337 65.4143 24.5222 73.7151H20.5873C20.4488 65.9556 20.0653 58.6591 19.4382 51.8242H19.4039L13.4118 73.7151H10.4152L4.45931 51.8242H4.42425C3.98238 58.3882 3.70427 65.6847 3.58833 73.7151H0C0.231891 63.9487 0.812215 54.7938 1.74097 46.248H6.61864Z" fill="#00758F"/>
<path d="M70.2242 45.8404C76.3316 45.8404 79.3855 50.3862 79.3855 59.4733C79.3855 64.4112 78.4671 68.1412 76.6321 70.661C76.3014 71.1215 75.9358 71.5193 75.5509 71.8878L79.873 74.3775L79.8688 74.3773L78.3342 77.4645L72.7057 73.6385C71.7727 73.9604 70.7461 74.1213 69.6275 74.1213C66.6287 74.1213 64.3887 73.1031 62.9077 71.0693C61.2821 68.8194 60.4696 65.2774 60.4696 60.4494C60.4696 55.5393 61.3864 51.8235 63.222 49.3004C64.8939 46.9925 67.2283 45.8404 70.2242 45.8404ZM51.5215 45.8801C53.7044 45.8801 55.6892 46.5606 57.477 47.9167L56.5689 50.2741C55.0391 49.5165 53.5309 49.1361 52.0435 49.1361C50.8366 49.1361 49.9067 49.4745 49.2584 50.1555C48.6066 50.8304 48.2033 51.6989 48.2033 52.7577C48.2033 54.3846 49.1982 55.7955 51.0352 56.9876C51.6371 57.3708 52.2368 57.7585 52.8344 58.1506L52.9714 58.2404L53.0402 58.2854L53.1774 58.3752L53.246 58.4203L53.383 58.5103C54.7736 59.4236 56.0821 60.2953 56.0821 60.2953C57.9188 61.8144 58.8345 63.4339 58.8345 66.1013C58.8345 68.4308 58.1017 70.343 56.6411 71.8393C55.1794 73.3289 53.2157 74.0758 50.7565 74.0758C48.4566 74.0758 46.2275 73.2161 44.0684 71.5112L45.0784 69.1517C46.9365 70.2367 48.6179 70.7787 50.1278 70.7787C51.5438 70.7787 52.6523 70.4104 53.4542 69.683C54.2544 68.9503 54.7339 67.9284 54.7339 66.6326C54.7339 65.0017 53.7602 63.6075 51.9738 62.438C51.4146 62.0781 50.8571 61.7147 50.3013 61.3479L50.1645 61.2576C49.913 61.0921 49.6598 60.9245 49.4118 60.7604L49.2773 60.6713C48.0711 59.872 47.0282 59.1736 47.0282 59.1736C45.2424 57.6518 44.3469 56.019 44.3469 53.3286C44.3469 51.1036 45.0146 49.3051 46.3482 47.9369C47.685 46.5657 49.4096 45.8801 51.5215 45.8801ZM86.5631 46.2477V70.3361H93.9816V73.7149H82.8007V46.248L86.5631 46.2477ZM98.1039 70.3465V70.9175H97.2883V73.7118H96.6647V70.9175H95.8174V70.3465H98.1039ZM99.6099 70.3465L100.393 72.6405L101.112 70.3465H101.996V73.7118H101.409V71.1507L100.59 73.7118H100.166L99.346 71.1507H99.3145V73.7118H98.7585V70.3465H99.6099ZM69.8401 49.2183C66.241 49.2183 64.4405 52.6788 64.4405 59.5951C64.4405 63.5569 64.9176 66.4297 65.8701 68.2203C66.7522 69.8775 68.1338 70.7044 70.015 70.7044C73.6141 70.7044 75.4144 67.217 75.4144 60.2454C75.4144 56.3391 74.9373 53.4909 73.986 51.6993C73.1029 50.0459 71.7219 49.2183 69.8403 49.2183" fill="#F29111"/>
<path d="M60.4067 1.70193C61.6007 -1.71585 65.7753 0.872433 67.3953 2.06631C67.7924 2.36501 68.2478 2.99607 68.703 3.22932C69.4132 3.26182 70.1228 3.32657 70.8343 3.36115C72.1686 3.72646 73.4185 4.02493 74.47 4.7226C79.3564 8.07517 82.5374 11.4916 85.4649 17.1346C86.0904 18.3299 86.403 19.6234 86.914 20.9168C87.6232 22.8448 88.4201 24.8686 89.2433 26.6917C89.6118 27.556 89.8969 28.5171 90.4087 29.247C90.6085 29.5808 91.1761 29.6792 91.5154 29.8786C92.4533 30.4442 93.5896 30.8735 94.4718 31.5373C96.1191 32.734 97.7119 34.16 99.1598 35.6198C99.6995 36.1833 100.067 36.981 100.581 37.577V37.8778C100.125 38.041 99.6702 38.2081 99.215 38.342C98.2207 38.6396 97.3399 38.5722 96.3753 38.87C95.7792 39.0715 95.0391 39.3372 94.414 39.4048L94.4718 39.4725C94.8395 40.6968 96.8293 41.6925 97.7393 42.4247C98.8446 43.354 99.8688 44.4811 100.693 45.7754C100.978 46.1057 101.263 46.4063 101.546 46.7356C101.744 47.0694 101.8 47.501 102 47.7986V47.8993C101.778 47.8081 101.619 47.634 101.467 47.4521L101.377 47.3423C101.287 47.2332 101.196 47.126 101.092 47.0376C100.465 46.5386 99.8421 45.9416 99.215 45.4777C98.1368 44.6807 96.8863 44.2181 95.7792 43.4181C95.1533 42.9537 94.5566 42.4247 93.96 41.8932C93.4191 41.4274 92.8234 40.533 92.4836 39.8692C92.2833 39.5025 92.2559 39.0715 92.0271 38.8062C92.068 38.3631 92.4164 38.2315 92.768 38.1234L92.8489 38.0985C92.9702 38.0619 93.089 38.0252 93.1926 37.9767C94.6696 37.2461 96.4305 36.981 98.7044 37.0474C98.6187 36.3822 97.1979 35.5534 96.7443 35.1552C95.8338 34.3906 94.8698 33.593 93.904 32.8971C93.3922 32.5328 92.5103 32.2668 91.9433 31.969C91.1761 31.6037 89.471 31.2386 89.0458 30.5428C88.3237 29.4459 87.8049 28.1376 87.3013 26.8161L87.1642 26.4554C87.1185 26.3352 87.0727 26.2151 87.0268 26.095C86.4315 24.5035 85.692 22.8443 85.0953 21.2148C84.7834 20.4199 84.6401 19.7222 84.2985 18.9598C82.2252 14.2813 79.1566 10.3643 75.4362 7.60959C74.2136 6.71325 72.8504 5.88376 71.3455 5.32001C70.4926 5.01991 69.469 5.18586 68.5604 4.95562H67.9623C67.4519 4.78805 67.0258 4.15769 66.6276 3.82534C65.748 3.12952 64.8671 2.66232 63.8152 2.16588C63.4466 1.96675 62.3942 1.50303 62.0268 1.86811C61.7993 1.93472 61.6839 2.03475 61.628 2.30073C61.4016 2.6976 61.6007 3.29547 61.7415 3.66148C62.1682 4.72214 62.7643 5.3525 63.3054 6.24884C63.7867 7.04375 64.3846 7.94009 64.7258 8.8044C65.4621 10.6623 65.805 12.7207 66.4873 14.5784C66.7403 15.277 67.1405 16.0719 67.5089 16.702C67.8211 17.2022 68.3886 17.5638 68.5604 18.1969C68.9026 18.8607 68.048 21.0509 67.8502 21.7465C67.1101 24.4683 67.2535 28.2516 68.1058 30.6108L68.1512 30.7352L68.1966 30.8612C68.5078 31.7253 68.8409 32.6558 69.6682 32.8974C69.7252 32.8315 69.6682 32.866 69.7812 32.8315C69.9814 31.0054 70.0378 29.2468 70.5781 27.818C70.8902 26.9247 71.5136 26.2932 71.9409 25.564C72.2258 25.7626 72.2258 26.3617 72.3955 26.7581C72.7653 27.7862 73.1623 28.9135 73.6181 29.9447C74.5537 32.0683 75.6063 34.1272 76.7991 35.9849C77.1985 36.6484 77.7653 37.3788 78.2765 37.9765C78.5042 38.2079 78.7592 38.3415 78.9303 38.6393H78.9861V38.7396C78.1338 38.3736 77.5935 37.3463 76.9138 36.7466C75.634 35.6193 74.1014 33.9265 73.2193 32.3021C72.8504 31.3695 72.4515 30.4757 72.0539 29.5478V29.4808C71.8839 29.7458 71.9409 30.009 71.8558 30.41C71.4869 32.0683 71.771 33.9601 70.4926 34.5566C69.0435 35.2552 67.9625 33.4293 67.5089 32.5996C66.0594 29.8456 65.6623 25.1996 66.6845 21.4492C66.9116 20.619 66.9425 19.6234 67.339 18.9605C67.2533 18.3612 66.8569 18.1974 66.6276 17.8302C66.2299 17.2026 65.8894 16.4715 65.5781 15.7746C64.98 14.4131 64.5545 12.7864 64.1005 11.3263C63.9008 10.7301 63.8437 10.1315 63.6447 9.56705C63.3052 8.70553 62.6794 7.84122 62.1967 7.07903C61.5431 5.98356 59.6394 3.86038 60.4067 1.70193ZM69.7246 8.20398C69.8005 8.29264 69.8922 8.37016 69.987 8.44651L70.1013 8.53796C70.2537 8.66097 70.4014 8.79047 70.4918 8.96686C70.6352 9.20035 70.6619 9.43081 70.8337 9.66476C70.8337 10.4625 70.6352 10.9928 70.2346 11.3233C70.2346 11.3233 70.2073 11.3581 70.1792 11.3906C69.9521 10.8589 69.7531 10.3299 69.5244 9.79868C69.2427 9.33496 68.8445 8.96709 68.615 8.43723H68.5598V8.37062C68.9026 8.27198 69.2427 8.20398 69.7246 8.20398Z" fill="#00758F"/>
</g>
<defs>
<clipPath id="clip0_195_603">
<rect width="102" height="81" fill="white"/>
</clipPath>
</defs>
</svg>
