<svg preserveAspectRatio="none" width="67" height="90" viewBox="0 0 67 90" fill="none" xmlns="http://www.w3.org/2000/svg">
<g clip-path="url(#clip0_195_498)">
<path d="M33.4592 89.7726L6.19279 82.5622L0.116467 17.6425H66.8835L60.8009 82.5522L33.4592 89.7726Z" fill="#264DE4"/>
<path d="M55.5935 78.4189L60.7912 22.9505H33.5V84.2535L55.5935 78.4189Z" fill="#2965F1"/>
<path d="M14.0462 47.0284L14.7952 54.9905H33.5V47.0284H14.0462ZM12.5408 30.9129L13.3005 38.875H33.5V30.9129H12.5408ZM33.5 67.7069L33.4634 67.7162L24.1545 65.3218L23.5594 58.9717H15.1687L16.3396 71.4735L33.4615 76.0009L33.5 75.9909V67.7069Z" fill="#EBEBEB"/>
<path d="M15.8298 0H25.9531V4.0328H20.0634V8.0656H25.9536V12.0981H15.8298V0ZM27.978 0H38.1015V3.50676H32.2116V4.20806H38.1015V12.2737H27.9783V8.59114H33.8682V7.88983H27.9777L27.978 0ZM40.1265 0H50.25V3.50676H44.36V4.20806H50.25V12.2737H40.1265V8.59114H46.0164V7.88983H40.1267L40.1265 0Z" fill="black"/>
<path d="M52.9004 47.0284L54.4092 30.9129H33.4712V38.875H45.2491L44.4885 47.0284H33.4712V54.9905H43.7638L42.7934 65.3168L33.4709 67.7137V75.9971L50.6065 71.4735L50.7321 70.1282L52.6965 49.1664L52.9004 47.0284Z" fill="white"/>
</g>
<defs>
<clipPath id="clip0_195_498">
<rect width="67" height="90" fill="white"/>
</clipPath>
</defs>
</svg>
