<svg preserveAspectRatio="none" width="67" height="90" viewBox="0 0 67 90" fill="none" xmlns="http://www.w3.org/2000/svg">
<g clip-path="url(#clip0_195_473)">
<path d="M66.8835 17.6425L60.8009 82.5522L33.4592 89.7726L6.19279 82.5622L0.11647 17.6425H66.8835Z" fill="#E44D26"/>
<path d="M33.5 84.2535L55.5935 78.4189L60.7912 22.9505H33.5V84.2535Z" fill="#F16529"/>
<path d="M21.6755 38.875H33.5V30.9129H12.5408L12.7407 33.049L14.7952 54.9905H33.5V47.0284H22.4395L21.6755 38.875ZM23.5594 58.9717H15.1687L16.3396 71.4735L33.4615 76.0009L33.5 75.9909V67.7069L33.4634 67.7162L24.1545 65.3218L23.5594 58.9717Z" fill="#EBEBEB"/>
<path d="M6.32835 0H10.576V3.99765H14.4618V0H18.7097V12.1059H14.462V8.05213H10.5763V12.1059H6.32862L6.32835 0ZM24.2953 4.0146H20.5564V0H32.2851V4.0146H28.5438V12.1059H24.2961V4.0146H24.2953ZM34.1464 0H38.5755L41.3 4.25368L44.0219 0H48.4528V12.1059H44.2224V6.10554L41.3 10.4098H41.2267L38.3025 6.10554V12.1059H34.1464V0ZM50.5667 0H54.8157V8.10449H60.7891V12.1059H50.5664L50.5667 0Z" fill="black"/>
<path d="M33.4712 54.9905H43.7638L42.7934 65.3168L33.4709 67.7137V75.9972L50.6065 71.4735L50.7321 70.1282L52.6965 49.1664L52.9004 47.0284H33.4712V54.9905ZM33.4712 38.8556V38.875H53.661L53.8285 37.0855L54.2095 33.049L54.4092 30.9129H33.4712V38.8556Z" fill="white"/>
</g>
<defs>
<clipPath id="clip0_195_473">
<rect width="67" height="90" fill="white"/>
</clipPath>
</defs>
</svg>
