<svg preserveAspectRatio="none" width="126" height="126" viewBox="0 0 126 126" fill="none" xmlns="http://www.w3.org/2000/svg">
<g clip-path="url(#clip0_178_27)">
<path fill-rule="evenodd" clip-rule="evenodd" d="M103.829 23.2575C105.127 22.7115 106.547 22.5231 107.942 22.7121C109.336 22.9011 110.655 23.4605 111.76 24.3321C112.866 25.2037 113.717 26.3556 114.226 27.6679C114.735 28.9803 114.883 30.4051 114.655 31.794L102.748 104.018C101.593 110.985 93.9488 114.98 87.5595 111.51C82.215 108.607 74.277 104.134 67.137 99.4665C63.567 97.1302 52.6313 89.649 53.9753 84.3255C55.1303 79.7738 73.5053 62.6693 84.0053 52.5C88.1265 48.5048 86.247 46.2 81.3803 49.875C69.2948 58.9995 49.8908 72.8753 43.4753 76.7813C37.8158 80.2253 34.8653 80.8133 31.3373 80.2253C24.9008 79.1543 18.9315 77.4953 14.0595 75.474C7.47601 72.744 7.79626 63.693 14.0543 61.0575L103.829 23.2575Z" fill="#27362F"/>
</g>
<defs>
<clipPath id="clip0_178_27">
<rect width="126" height="126" fill="white"/>
</clipPath>
</defs>
</svg>
