<svg preserveAspectRatio="none" width="94" height="98" viewBox="0 0 94 98" fill="none" xmlns="http://www.w3.org/2000/svg">
<path d="M54.1675 68.2019H39.8251V83.0014C39.8251 86.7147 42.748 89.7236 46.3464 89.7236H47.6462C51.2447 89.7236 54.1675 86.7147 54.1675 83.0014V68.2019ZM67.0705 38.5952H26.9295C22.604 38.5952 19.0644 42.5305 19.0644 47.3309C19.0644 52.1391 22.604 56.0667 26.9295 56.0667H67.0631C71.3886 56.0667 74.9283 52.1314 74.9283 47.3309C74.9356 42.5305 71.3959 38.5952 67.0705 38.5952Z" fill="#E59600"/>
<path d="M47 8.46016C34.2219 8.46016 22.3838 22.7084 22.3838 43.2119C22.3838 63.6081 34.5817 73.6914 47 73.6914C59.4183 73.6914 71.6163 63.6081 71.6163 43.2119C71.6163 22.7084 59.7781 8.46016 47 8.46016Z" fill="#FFCA28"/>
<path d="M34.9269 48.9158C36.9264 48.9158 38.5473 47.1676 38.5473 45.0111C38.5473 42.8546 36.9264 41.1064 34.9269 41.1064C32.9273 41.1064 31.3064 42.8546 31.3064 45.0111C31.3064 47.1676 32.9273 48.9158 34.9269 48.9158Z" fill="#404040"/>
<path d="M59.0731 48.9158C61.0726 48.9158 62.6936 47.1676 62.6936 45.0111C62.6936 42.8546 61.0726 41.1064 59.0731 41.1064C57.0736 41.1064 55.4526 42.8546 55.4526 45.0111C55.4526 47.1676 57.0736 48.9158 59.0731 48.9158Z" fill="#404040"/>
<path d="M49.8347 52.0931C49.7539 52.0625 49.6805 52.0395 49.5997 52.0319H44.4076C44.3269 52.0395 44.2461 52.0625 44.1726 52.0931C43.7026 52.2922 43.4456 52.7975 43.6659 53.3411C43.8862 53.8847 44.9217 55.4006 47.0073 55.4006C49.093 55.4006 50.1284 53.877 50.3487 53.3411C50.5617 52.7975 50.3047 52.2922 49.8347 52.0931Z" fill="#E59600"/>
<path d="M53.1834 58.2794C50.8408 59.7264 43.1739 59.7264 40.8386 58.2794C39.4947 57.4449 38.1214 58.7235 38.6795 59.9944C39.2303 61.2424 43.4162 64.1441 47.0294 64.1441C50.6425 64.1441 54.777 61.2424 55.3278 59.9944C55.8786 58.7235 54.5273 57.4449 53.1834 58.2794Z" fill="#795548"/>
<path d="M47.0147 3.85109H46.9853C13.6153 4.03484 20.4524 42.2395 20.4524 42.2395C20.4524 42.2395 21.9505 46.3356 22.6335 48.1425C22.7289 48.4028 23.0961 48.3722 23.1549 48.1042C23.8672 44.7814 26.4302 32.9984 27.7227 29.4153C28.0919 28.3944 28.7937 27.5413 29.7052 27.0053C30.6168 26.4693 31.68 26.2844 32.7091 26.483C35.9844 27.1031 41.1911 27.8687 46.9413 27.8687H47.0588C52.8016 27.8687 58.0156 27.1031 61.2836 26.483C63.4133 26.0772 65.5136 27.3098 66.27 29.4153C67.5552 32.9831 70.1035 44.6972 70.8231 48.0659C70.8819 48.3416 71.2491 48.3645 71.3446 48.1042L73.533 42.2319C73.5477 42.2395 80.3774 4.03484 47.0147 3.85109Z" fill="#543930"/>
<path d="M73.5477 42.2395C73.5477 42.2395 80.3847 4.03484 47.0147 3.85109H46.9853C46.4639 3.85109 45.9572 3.8664 45.4578 3.88937C44.4664 3.93531 43.5044 4.01187 42.5791 4.12671H42.5497C42.4836 4.13437 42.4249 4.14968 42.3588 4.15734C14.2689 7.84 20.445 42.2395 20.445 42.2395L22.6335 48.1195C22.7289 48.3798 23.0888 48.3569 23.1475 48.0812C23.8672 44.7202 26.4228 32.9908 27.7153 29.423C28.0854 28.401 28.7884 27.5473 29.7014 27.0112C30.6143 26.4751 31.679 26.2909 32.7091 26.4906C35.9844 27.1031 41.1911 27.8687 46.9413 27.8687H47.0588C52.8016 27.8687 58.0156 27.1031 61.2836 26.483C63.4133 26.0772 65.5136 27.3098 66.27 29.4153C67.5625 32.9984 70.1255 44.8044 70.8305 48.1119C70.8892 48.3875 71.2491 48.4105 71.3445 48.1502C72.0349 46.3509 73.5477 42.2395 73.5477 42.2395Z" fill="url(#paint0_radial_178_39)"/>
<path d="M85.5547 41.5581C84.6441 41.5581 83.9023 42.2931 83.9023 43.1966V50.2403C83.9023 51.1437 84.6441 51.8787 85.5547 51.8787C86.4653 51.8787 87.207 51.1437 87.207 50.2403V43.1966C87.207 42.2931 86.4653 41.5581 85.5547 41.5581ZM82.25 41.5581C81.3394 41.5581 80.5977 42.2931 80.5977 43.1966V50.2403C80.5977 51.1437 81.3394 51.8787 82.25 51.8787C83.1606 51.8787 83.9023 51.1437 83.9023 50.2403V43.1966C83.9023 42.2931 83.1606 41.5581 82.25 41.5581Z" fill="#E8AD00"/>
<path d="M83.9023 41.5581C82.9917 41.5581 82.25 42.2931 82.25 43.1966V51.7639C82.25 52.6673 82.9917 53.4023 83.9023 53.4023C84.813 53.4023 85.5547 52.6673 85.5547 51.7639V43.1966C85.5547 42.2931 84.813 41.5581 83.9023 41.5581Z" fill="#FFCA28"/>
<path d="M83.9023 42.63C85.0217 42.63 85.9292 41.7285 85.9292 40.6164C85.9292 39.5043 85.0217 38.6028 83.9023 38.6028C82.7829 38.6028 81.8755 39.5043 81.8755 40.6164C81.8755 41.7285 82.7829 42.63 83.9023 42.63Z" fill="#FFCA28"/>
<path d="M83.9023 40.5934C83.4984 40.5934 83.168 40.2489 83.168 39.8278V10.7341C83.168 10.313 83.4984 9.96844 83.9023 9.96844C84.3063 9.96844 84.6367 10.313 84.6367 10.7341V39.8278C84.6367 40.2566 84.3063 40.5934 83.9023 40.5934Z" fill="#504F4F"/>
<path d="M85.1875 9.9378C62.5467 4.00421 47 3.81281 47 3.81281C47 3.81281 31.4533 4.00421 8.8125 9.9378V10.5273C8.8125 11.5456 9.45141 12.4414 10.3841 12.7247C13.1159 13.5669 20.0264 15.4273 23.735 16.2006C23.6762 16.2619 22.9272 17.6323 22.3911 18.9033C22.3911 18.9033 28.3689 23.2826 47.0073 25.2426C65.6458 23.2826 71.7998 19.4392 71.7998 19.4392C71.1536 18.0534 70.4853 16.7672 70.4853 16.7672C73.79 16.2006 80.9355 13.6511 83.6673 12.74C84.5853 12.4337 85.2022 11.5533 85.2022 10.5503V9.9378H85.1875Z" fill="url(#paint1_linear_178_39)"/>
<path d="M47 3.81281C47 3.81281 31.4533 4.00421 8.8125 9.9378C8.8125 9.9378 34.8167 17.3414 47 17.1194C59.1833 17.3414 85.1875 9.9378 85.1875 9.9378C62.5467 4.00421 47 3.81281 47 3.81281Z" fill="url(#paint2_linear_178_39)"/>
<path opacity="0.4" d="M85.1875 9.9378C62.5467 4.00421 47 3.81281 47 3.81281C47 3.81281 31.4533 4.00421 8.8125 9.9378V10.5273C8.8125 11.5456 9.45141 12.4414 10.3841 12.7247C13.1159 13.5669 20.0264 15.5498 23.735 16.3308C23.735 16.3308 23.03 17.5251 22.3911 19.0334C22.3911 19.0334 28.3689 23.2826 47.0073 25.2503C65.6458 23.2903 71.7998 19.4469 71.7998 19.4469C71.1536 18.0611 70.4853 16.7748 70.4853 16.7748C73.79 16.2083 80.9355 13.6587 83.6673 12.7476C84.5853 12.4414 85.2022 11.5609 85.2022 10.558V9.9378H85.1875Z" fill="url(#paint3_linear_178_39)"/>
<path d="M29.3823 38.8325C31.5781 35.5939 36.5645 35.2877 39.4213 37.6994C39.8766 38.0822 40.4788 38.6181 40.655 39.2153C40.9488 40.1877 40.0528 40.9456 39.1789 40.7159C38.6208 40.5705 38.0994 40.2566 37.5486 40.0805C36.5425 39.7512 35.8155 39.6594 34.9122 39.6594C33.5756 39.6517 32.7164 39.8278 31.4459 40.3638C30.9245 40.5858 30.4986 40.938 29.9038 40.6777C29.2208 40.3791 28.9711 39.4756 29.3823 38.8325ZM63.2077 40.67C62.9947 40.5705 62.7891 40.448 62.5761 40.3561C61.2689 39.7895 60.5272 39.6441 59.1098 39.6517C57.8614 39.6594 57.1197 39.8355 56.143 40.18C55.5481 40.3944 54.7917 40.9303 54.1308 40.7236C53.1614 40.4173 53.1908 39.3148 53.7195 38.6105C54.3511 37.7836 55.2177 37.1558 56.1356 36.7423C58.2653 35.7777 60.865 35.9155 62.8698 37.1634C63.5234 37.5692 64.2358 38.1281 64.6323 38.8325C65.2052 39.8355 64.3386 41.1523 63.2077 40.67Z" fill="#6D4C41"/>
<path d="M84.0859 92.633C84.0859 81.4472 68.1133 76.1414 54.1822 74.947L47.8666 83.3919C47.6609 83.6675 47.3378 83.8359 47 83.8359C46.6622 83.8359 46.3391 83.6752 46.1334 83.3919L39.8031 74.9317C32.0555 75.5519 9.90671 78.5684 9.90671 92.633V94.9375H84.0786L84.0859 92.633Z" fill="#212121"/>
<path d="M84.0859 92.633C84.0859 81.4472 68.1133 76.1414 54.1822 74.947L47.8666 83.3919C47.6609 83.6675 47.3378 83.8359 47 83.8359C46.6622 83.8359 46.3391 83.6752 46.1334 83.3919L39.8031 74.9317C32.0555 75.5519 9.90671 78.5684 9.90671 92.633V94.9375H84.0786L84.0859 92.633Z" fill="url(#paint4_radial_178_39)"/>
<defs>
<radialGradient id="paint0_radial_178_39" cx="0" cy="0" r="1" gradientUnits="userSpaceOnUse" gradientTransform="translate(47.0008 35.7275) scale(27.813 32.7139)">
<stop offset="0.794" stop-color="#6D4C41" stop-opacity="0"/>
<stop offset="1" stop-color="#6D4C41"/>
</radialGradient>
<linearGradient id="paint1_linear_178_39" x1="47" y1="0.496883" x2="47" y2="22.4251" gradientUnits="userSpaceOnUse">
<stop offset="0.003" stop-color="#424242"/>
<stop offset="0.472" stop-color="#353535"/>
<stop offset="1" stop-color="#212121"/>
</linearGradient>
<linearGradient id="paint2_linear_178_39" x1="47" y1="0.624743" x2="47" y2="24.3591" gradientUnits="userSpaceOnUse">
<stop offset="0.003" stop-color="#616161"/>
<stop offset="0.324" stop-color="#505050"/>
<stop offset="0.955" stop-color="#242424"/>
<stop offset="1" stop-color="#212121"/>
</linearGradient>
<linearGradient id="paint3_linear_178_39" x1="10.2027" y1="14.5339" x2="84.2482" y2="14.5339" gradientUnits="userSpaceOnUse">
<stop offset="0.001" stop-color="#BFBEBE"/>
<stop offset="0.3" stop-color="#212121" stop-opacity="0"/>
<stop offset="0.7" stop-color="#212121" stop-opacity="0"/>
<stop offset="1" stop-color="#BFBEBE"/>
</linearGradient>
<radialGradient id="paint4_radial_178_39" cx="0" cy="0" r="1" gradientUnits="userSpaceOnUse" gradientTransform="translate(47 93.8681) scale(39.7789 21.7602)">
<stop offset="0.598" stop-color="#212121"/>
<stop offset="1" stop-color="#616161"/>
</radialGradient>
</defs>
</svg>
