<svg preserveAspectRatio="none" width="130" height="130" viewBox="0 0 130 130" fill="none" xmlns="http://www.w3.org/2000/svg">
<path fill-rule="evenodd" clip-rule="evenodd" d="M24.375 8.125C20.0652 8.125 15.932 9.83705 12.8845 12.8845C9.83705 15.932 8.125 20.0652 8.125 24.375V105.625C8.125 109.935 9.83705 114.068 12.8845 117.115C15.932 120.163 20.0652 121.875 24.375 121.875H105.625C109.935 121.875 114.068 120.163 117.115 117.115C120.163 114.068 121.875 109.935 121.875 105.625V24.375C121.875 20.0652 120.163 15.932 117.115 12.8845C114.068 9.83705 109.935 8.125 105.625 8.125H24.375ZM33.3288 43.0381C35.9038 43.0381 38.3735 42.0152 40.1943 40.1943C42.0152 38.3735 43.0381 35.9038 43.0381 33.3288C43.0381 30.7537 42.0152 28.284 40.1943 26.4632C38.3735 24.6423 35.9038 23.6194 33.3288 23.6194C30.7537 23.6194 28.284 24.6423 26.4632 26.4632C24.6423 28.284 23.6194 30.7537 23.6194 33.3288C23.6194 35.9038 24.6423 38.3735 26.4632 40.1943C28.284 42.0152 30.7537 43.0381 33.3288 43.0381ZM41.4538 104.106V50.6513H25.2037V104.106H41.4538ZM52.2437 50.6513H68.4938V57.8094C70.8906 54.0556 76.1556 49.0019 85.9463 49.0019C97.63 49.0019 103.976 56.745 103.976 71.4756C103.976 72.1825 104.041 75.4081 104.041 75.4081V104.098H87.7906V75.4162C87.7906 71.4756 86.9619 63.7325 78.2031 63.7325C69.4363 63.7325 68.6969 73.4663 68.4938 79.8363V104.098H52.2437V50.6513Z" fill="#27362F"/>
</svg>
