<svg preserveAspectRatio="none" width="130" height="130" viewBox="0 0 130 130" fill="none" xmlns="http://www.w3.org/2000/svg">
<path d="M72.0958 110.5C64.9334 111.619 57.6079 111.031 50.7158 108.783C43.8237 106.536 37.5597 102.692 32.4337 97.5663C27.3076 92.4403 23.4644 86.1763 21.2169 79.2842C18.9695 72.392 18.3812 65.0666 19.5 57.9042C16.6765 52.5336 15.6447 46.4007 16.5555 40.4019C17.4664 34.4031 20.272 28.8529 24.5625 24.5625C28.8529 20.272 34.4031 17.4664 40.4019 16.5555C46.4007 15.6447 52.5336 16.6765 57.9042 19.5C65.0666 18.3812 72.392 18.9695 79.2842 21.2169C86.1763 23.4644 92.4403 27.3076 97.5663 32.4337C102.692 37.5597 106.536 43.8237 108.783 50.7158C111.031 57.6079 111.619 64.9334 110.5 72.0958C113.324 77.4664 114.355 83.5993 113.444 89.5981C112.534 95.5969 109.728 101.147 105.438 105.438C101.147 109.728 95.5969 112.534 89.5981 113.444C83.5993 114.355 77.4664 113.324 72.0958 110.5ZM65.2871 92.9283H65.0704C80.6271 92.9283 88.3783 85.4208 88.3783 75.3621C88.3783 68.8729 85.3937 61.9775 73.6125 59.3396L62.8712 56.9562C58.7817 56.0246 54.0854 54.7896 54.0854 50.9167C54.0854 47.0437 57.4437 44.3462 63.4237 44.3462C75.5029 44.3462 74.4033 52.6229 80.3833 52.6229C83.5033 52.6229 86.3037 50.7704 86.3037 47.5854C86.3037 40.1646 74.4033 34.5854 64.3337 34.5854C53.3867 34.5854 41.73 39.2383 41.73 51.6154C41.73 57.5629 43.8642 63.9112 55.5967 66.8525L70.1621 70.4871C74.5821 71.5812 75.6762 74.0567 75.6762 76.2937C75.6762 80.015 71.9712 83.6496 65.2871 83.6496C52.195 83.6496 54.0312 73.5908 47.0112 73.5908C43.8696 73.5908 41.5783 75.7467 41.5783 78.8504C41.5783 84.8846 48.9017 92.9283 65.2871 92.9283Z" fill="#27362F"/>
</svg>
