<svg preserveAspectRatio="none" width="90" height="90" viewBox="0 0 90 90" fill="none" xmlns="http://www.w3.org/2000/svg">
<path d="M70.7812 5H27.2188C16.6045 5 8 13.6045 8 24.2188V67.7812C8 78.3955 16.6045 87 27.2188 87H70.7812C81.3955 87 90 78.3955 90 67.7812V24.2188C90 13.6045 81.3955 5 70.7812 5Z" fill="#007ACC"/>
<path d="M26.1332 46.272L26.1073 49.6301H36.7801V79.957H44.3298V49.6301H55.0027V46.337C55.0027 44.5147 54.9639 42.992 54.9117 42.9529C54.8726 42.901 48.3776 42.8747 40.5031 42.8879L26.1726 42.9269L26.1332 46.272ZM74.166 42.8315C76.2483 43.3523 77.8365 44.2764 79.2942 45.7861C80.0492 46.5932 81.1683 48.0641 81.2596 48.4155C81.2856 48.5196 77.7192 50.9146 75.5587 52.2551C75.4806 52.3073 75.1679 51.9687 74.8166 51.4482C73.7624 49.9123 72.656 49.2483 70.9638 49.1314C68.4779 48.962 66.877 50.2637 66.8901 52.4373C66.8901 53.0751 66.9811 53.4524 67.2415 53.9732C67.7879 55.1055 68.8033 55.7824 71.9924 57.162C77.8624 59.6873 80.3743 61.3532 81.9365 63.722C83.6806 66.3642 84.071 70.5814 82.8865 73.7183C81.5851 77.1283 78.357 79.4451 73.8143 80.2132C72.4088 80.4605 69.0765 80.4214 67.5669 80.1482C64.2738 79.5624 61.1501 77.9355 59.2237 75.8009C58.4688 74.9678 56.9979 72.7942 57.0892 72.6379C57.1279 72.586 57.4665 72.3778 57.8438 72.1564C58.2083 71.9482 59.5883 71.1542 60.8897 70.3992L63.2456 69.0324L63.7401 69.7614C64.4301 70.8156 65.9397 72.2605 66.851 72.742C69.467 74.1219 73.0596 73.9265 74.8297 72.3387C75.5847 71.6487 75.897 70.9328 75.897 69.8787C75.897 68.9283 75.7797 68.5119 75.2852 67.796C74.6474 66.885 73.346 66.1169 69.6493 64.516C65.4192 62.6938 63.597 61.5614 61.931 59.7651C60.9678 58.7241 60.0565 57.0579 59.6792 55.6651C59.3669 54.5069 59.2888 51.6042 59.536 50.4328C60.4079 46.346 63.4929 43.4955 67.9442 42.6492C69.3892 42.376 72.747 42.4801 74.166 42.8315Z" fill="white"/>
</svg>
