<svg preserveAspectRatio="none" width="82" height="82" viewBox="0 0 82 82" fill="none" xmlns="http://www.w3.org/2000/svg">
<g clip-path="url(#clip0_195_479)">
<path d="M62.7812 0H19.2188C8.60453 0 0 8.60453 0 19.2188V62.7812C0 73.3955 8.60453 82 19.2188 82H62.7812C73.3955 82 82 73.3955 82 62.7812V19.2188C82 8.60453 73.3955 0 62.7812 0Z" fill="#F0DB4F"/>
<path d="M21.5609 68.5251L27.8358 64.7275C29.0466 66.8739 30.1478 68.6901 32.7894 68.6901C35.3215 68.6901 36.9179 67.6997 36.9179 63.8469V37.646H44.624V63.9558C44.624 71.9371 39.9455 75.57 33.1197 75.57C26.9553 75.57 23.377 72.3775 21.5605 68.5245M48.8095 67.6993L55.0838 64.0667C56.7357 66.764 58.8824 68.7455 62.68 68.7455C65.8732 68.7455 67.9091 67.149 67.9091 64.9472C67.9091 62.3053 65.8175 61.3693 62.2947 59.8286L60.3687 59.0025C54.809 56.6361 51.1209 53.6636 51.1209 47.3886C51.1209 41.6089 55.5246 37.2053 62.4052 37.2053C67.3041 37.2053 70.8269 38.9119 73.3586 43.3703L67.3588 47.2234C66.0375 44.8566 64.607 43.9209 62.4052 43.9209C60.1483 43.9209 58.7171 45.3521 58.7171 47.2234C58.7171 49.5351 60.1483 50.471 63.4507 51.9025L65.3771 52.7279C71.9271 55.5355 75.6152 58.3971 75.6152 64.837C75.6152 71.7731 70.166 75.5707 62.8453 75.5707C55.6898 75.5707 51.0661 72.1581 48.8095 67.6993Z" fill="#323330"/>
</g>
<defs>
<clipPath id="clip0_195_479">
<rect width="82" height="82" fill="white"/>
</clipPath>
</defs>
</svg>
