<svg preserveAspectRatio="none" width="345" height="345" viewBox="0 0 345 345" fill="none" xmlns="http://www.w3.org/2000/svg">
<g clip-path="url(#clip0_178_35)">
<path d="M275.375 237.808C276.004 236.929 276.42 235.916 276.59 234.849C276.76 233.782 276.678 232.69 276.352 231.66L269.58 217.304C269.453 217.037 269.405 216.744 269.456 216.429C269.507 216.115 269.645 215.852 269.85 215.638L280.834 204.122C281.463 203.244 281.879 202.231 282.048 201.163C282.218 200.096 282.136 199.004 281.811 197.974C281.605 196.911 281.171 195.906 280.54 195.026C279.909 194.147 279.095 193.415 278.153 192.88L263.824 184.84C263.558 184.699 263.334 184.49 263.176 184.234C263.017 183.978 262.929 183.684 262.92 183.383L265.442 167.818C265.562 166.707 265.423 165.583 265.035 164.535C264.648 163.487 264.024 162.543 263.211 161.777C262.091 160.712 260.675 160.012 259.148 159.77L256.002 159.26L239.61 160.783C239.161 160.884 238.69 160.808 238.296 160.57L230.084 146.893C229.473 145.966 228.676 145.176 227.744 144.573C226.811 143.97 225.764 143.567 224.668 143.389C223.572 143.212 222.451 143.264 221.377 143.541C220.302 143.819 219.296 144.317 218.423 145.003L206.294 155.384C205.845 155.486 205.374 155.41 204.98 155.172L204.999 155.175L189.031 148.218L187.032 147.895C185.49 147.64 183.907 147.853 182.488 148.507C181.482 148.981 180.598 149.679 179.904 150.548C179.21 151.417 178.725 152.433 178.485 153.519L175.963 169.084C175.862 169.368 175.689 169.621 175.461 169.817C175.232 170.013 174.956 170.146 174.661 170.203L158.565 173.293C156.781 173.296 155.056 173.929 153.694 175.082C152.332 176.234 151.422 177.831 151.125 179.591C150.945 180.701 151.033 181.798 151.346 182.798L158.118 197.154C158.246 197.422 158.293 197.714 158.242 198.029C158.191 198.344 158.054 198.606 157.848 198.82L146.865 210.336C146.236 211.215 145.82 212.228 145.65 213.295C145.48 214.362 145.562 215.454 145.888 216.484C146.093 217.547 146.527 218.553 147.158 219.432C147.789 220.311 148.604 221.044 149.545 221.578L163.875 229.618C164.14 229.759 164.364 229.969 164.523 230.225C164.681 230.48 164.77 230.774 164.778 231.075L162.256 246.641C162.136 247.751 162.276 248.875 162.663 249.923C163.05 250.971 163.674 251.915 164.487 252.681C165.628 253.75 167.062 254.452 168.605 254.697L171.715 255.201L177.662 254.835L166.596 323.132L200.912 290.703L222.122 332.129L233.188 263.832L238.686 266.243L240.87 266.597C242.412 266.851 243.995 266.638 245.414 265.984C246.42 265.51 247.304 264.812 247.998 263.943C248.692 263.075 249.177 262.058 249.417 260.973L251.939 245.407C252.04 245.123 252.213 244.87 252.441 244.674C252.67 244.478 252.945 244.345 253.241 244.288L269.337 241.198C270.533 241.157 271.703 240.833 272.751 240.254C273.799 239.674 274.695 238.855 275.366 237.863L275.375 237.808Z" fill="white"/>
<path d="M44.9857 18.5086L8.99717 240.612L157.066 264.604L155.18 263.349C152.836 261.116 151.035 258.377 149.914 255.341C148.792 252.305 148.381 249.052 148.711 245.832L148.96 244.296L30.5048 225.102L60.4953 40.0163L319.616 82.0029L289.625 267.089L263.158 262.8L262.918 264.281C262.222 267.437 260.816 270.393 258.806 272.925C256.796 275.456 254.236 277.496 251.32 278.889L249.609 279.599L305.135 288.597L341.123 66.4933L44.9857 18.5086Z" fill="white"/>
<path d="M164.78 150.177C165.378 146.874 166.752 143.759 168.789 141.091C170.827 138.422 173.469 136.276 176.499 134.829C177.035 134.777 177.576 134.852 178.078 135.047L85.5163 120.049L82.5173 138.557L164.51 151.843L164.78 150.177ZM142.818 167.323L79.5182 157.066L76.5192 175.575L138.708 185.651C137.816 183.085 137.501 180.354 137.784 177.652C138.068 174.95 138.943 172.344 140.348 170.019C140.838 168.864 141.71 167.912 142.818 167.323ZM91.5144 83.0315L276.6 113.022L273.601 131.531L88.5154 101.54L91.5144 83.0315Z" fill="white"/>
</g>
<defs>
<clipPath id="clip0_178_35">
<rect width="300" height="300" fill="white" transform="translate(47.9847) rotate(9.20394)"/>
</clipPath>
</defs>
</svg>
