<svg preserveAspectRatio="none" width="143" height="149" viewBox="0 0 143 149" fill="none" xmlns="http://www.w3.org/2000/svg">
<path d="M130.577 39.9466C127.84 43.1811 124.756 46.0575 121.396 48.5097C118.527 41.4195 114.331 35.0937 109.058 29.9068C103.785 24.7198 97.5417 20.7773 90.6978 18.3125C83.854 15.8477 76.5488 14.9108 69.2147 15.5573C61.8807 16.2039 54.6669 18.4206 48.0005 22.0764C41.3342 25.7321 35.3508 30.7525 30.4047 36.8403C25.4586 42.9281 21.6503 49.9595 19.2054 57.5181C16.7605 65.0767 15.7286 73.0089 16.1709 80.845C16.6132 88.681 18.5206 96.2616 21.7802 103.138L23.0325 105.665C27.9173 114.901 35.1579 122.371 43.9525 127.249C52.747 132.126 62.7522 134.22 72.8599 133.298C82.9676 132.377 92.7833 128.476 101.22 122.028C109.656 115.58 116.384 106.836 120.659 96.7655C127.082 83.1844 129.488 63.7521 130.577 39.9466ZM29.013 106.238C28.2142 106.774 27.2973 107.052 26.3782 107.035C25.4591 107.019 24.579 106.71 23.849 106.147C23.1189 105.584 22.5718 104.793 22.2766 103.872C21.9814 102.952 21.9513 101.944 22.1903 100.977C22.4292 100.009 22.9265 99.124 23.6191 98.4344C24.3118 97.7447 25.1689 97.2809 26.0822 97.1015C26.9955 96.9222 27.924 97.0353 28.7505 97.4267C29.5769 97.818 30.2643 98.47 30.7258 99.3003C31.3177 100.425 31.4701 101.774 31.1512 103.066C30.8324 104.358 30.0652 105.497 29.013 106.238ZM104.214 114.18C85.1963 128.08 60.3314 112.194 42.7786 106.974C42.7786 106.974 39.6324 106.115 36.4074 105.482C36.4074 105.482 37.7732 105.321 39.4574 105.268C53.2304 104.979 59.2598 106.086 68.1132 104.559C84.6707 101.75 104.469 89.6875 113.374 73.0881C102.174 88.0897 81.0101 96.9315 64.3601 97.6274C52.9013 98.0986 33.4567 95.5858 33.4567 95.5858L32.8787 94.8583C22.9255 83.8985 32.7133 54.6084 58.3976 53.2302C69.6833 52.5656 78.1753 58.2005 89.817 59.2273C102.14 60.3705 118.485 55.7892 128.024 45.5312C127.092 67.1854 123.666 100.04 104.214 114.18Z" fill="#C7C7C7"/>
</svg>
