<svg preserveAspectRatio="none" width="166" height="167" viewBox="0 0 166 167" fill="none" xmlns="http://www.w3.org/2000/svg">
<path d="M126.587 70.9928L126.028 69.5709C123.561 63.3044 116.521 60.2402 110.31 62.729L100.461 66.6752C97.1035 68.0205 94.4133 70.6562 92.9821 74.0026C91.5509 77.3489 91.496 81.1318 92.8295 84.5189C94.1629 87.9061 96.7755 90.6202 100.092 92.064C103.409 93.5079 107.159 93.5633 110.516 92.218L118.956 88.8364C122.313 87.4912 126.063 87.5466 129.38 88.9904C132.697 90.4343 135.31 93.1483 136.643 96.5355C137.976 99.9227 137.922 103.706 136.49 107.052C135.059 110.398 132.369 113.034 129.012 114.379L120.572 117.761C117.215 119.106 113.465 119.051 110.148 117.607C106.831 116.163 104.218 113.449 102.885 110.062M83.5819 73.4383L41.3845 90.3461M62.4832 81.8922L84.2703 137.235M0.174683 47.7144L118.327 0.372812L165.253 119.572L47.1006 166.914L0.174683 47.7144Z" stroke="#C7C7C7" stroke-width="4.58182"/>
</svg>
