<svg preserveAspectRatio="none" width="134" height="161" viewBox="0 0 134 161" fill="none" xmlns="http://www.w3.org/2000/svg">
<path d="M102.104 44.6145L102.44 44.8905C96.8731 46.4323 80.7867 51.769 78.7923 62.1691C78.1194 65.678 79.5958 69.475 80.977 73.0432C82.1964 76.1855 83.3468 79.1435 82.8853 81.5504C81.7229 87.6119 74.5662 91.0972 70.6181 92.5738L70.0182 92.0756C71.6473 90.7969 73.784 88.5396 74.3112 85.7907C75.0375 82.0031 73.5602 78.5738 72.0645 75.095C70.5145 71.5005 68.9475 67.8501 69.7491 63.6698C72.533 49.1527 94.908 45.4376 102.104 44.6145ZM73.1811 46.9334C82.9408 41.4789 93.6044 35.5174 95.8406 23.8569C96.8523 18.5808 95.2126 14.7651 94.3385 13.1948L93.9322 13.3192C93.9987 14.423 94.0292 16.4396 93.5433 18.9732C91.5077 29.5886 80.5495 35.164 69.9434 40.5716C59.9921 45.647 50.3503 50.5594 48.6693 59.3254C46.2582 71.898 57.9004 82.1934 62.8174 86.5437L63.1911 86.8794L63.5627 86.7548C63.3137 86.3681 63.0579 85.9852 62.7955 85.6063C59.3544 80.4862 54.1263 72.7175 56.0345 62.7671C57.3742 55.7809 64.9545 51.5372 73.1811 46.9334ZM58.1235 109.099C69.9483 111.407 78.5275 111.419 82.3892 111.154L87.3834 115.283C81.5782 116.798 69.4207 116.442 57.1469 114.047C42.7145 111.23 27.4959 105.224 28.1971 101.313C28.5766 99.1527 34.0127 98.7287 39.7538 98.8899L40.0538 99.139C40.0538 99.139 38.0475 99.411 37.7858 100.884C37.3875 103.106 46.5199 106.834 58.1168 109.097M31.8236 118.231C32.318 115.653 38.1765 115.528 40.8442 115.543L41.1429 115.798C40.641 116.022 40.3183 116.4 40.249 116.761C39.9247 118.452 45.8625 121.214 55.4215 123.08C63.9884 124.752 68.9385 124.686 71.89 124.599L77.8304 129.523C77.4899 129.667 70.2095 132.274 54.2421 129.158C42.6385 126.893 31.1374 121.81 31.8236 118.231ZM91.0956 118.445C99.823 115.726 108.707 112.23 110.708 104.223C112.022 98.9663 107.601 94.0623 101.751 93.998L102.188 93.3475L102.191 93.3349C103.689 93.2069 105.509 93.2203 107.473 93.6037C113.794 94.8375 117.955 99.362 117.611 104.492C116.931 114.781 100.608 118.376 91.7376 118.978L91.0956 118.445ZM100.706 139.955C99.4486 146.871 73.8054 146.124 51.5552 141.972C32.3465 138.387 2.07966 128.932 3.33655 122.015C4.21094 117.237 18.2907 116.562 25.7796 117.038L26.4715 117.6C26.4715 117.6 15.1206 117.862 14.3222 122.207C13.5328 126.541 35.7338 134.758 52.31 137.855C77.9917 142.644 96.1035 142.085 99.181 137.134L99.5807 137.008C100.232 137.674 100.926 138.697 100.706 139.955ZM20.0085 138.791C29.2187 142.075 38.6806 144.636 48.2976 146.448C89.9777 154.229 103.576 146.856 105.789 145.106L106.07 145.345C104.174 152.912 80.9468 154.976 53.7623 149.9C39.9248 147.318 27.6383 143.356 19.082 139.09L20.0085 138.791ZM48.726 83.3991C41.3922 82.513 25.4439 81.6541 24.703 85.5177C24.1418 88.4439 37.5891 95.3462 59.898 99.7004C79.9679 103.618 93.3235 102.512 96.5409 101.727L92.6861 98.5106C89.4507 98.7005 77.5318 98.8777 60.6862 95.5898C50.7652 93.6534 34.0032 88.5879 34.5097 85.9467C34.964 83.5779 45.9789 83.8354 49.1431 83.9076L49.3436 83.9139L48.726 83.3991Z" fill="#C7C7C7"/>
</svg>
