<svg preserveAspectRatio="none" width="168" height="156" viewBox="0 0 168 156" fill="none" xmlns="http://www.w3.org/2000/svg">
<path d="M153.189 84.1672C152.886 83.725 150.499 79.5855 143.319 77.3916C141.457 76.8228 139.524 76.4943 137.542 76.326C139.512 64.6858 133.44 56.6221 133.18 56.2803L131.661 54.3295L129.815 56.1265C127.353 58.5225 125.104 61.4205 123.563 64.6221C120.309 70.6236 119.28 76.9547 120.443 82.9939C116.512 84.2412 111.024 83.1768 109.894 82.8315L22.3329 56.078C20.0724 55.3873 17.5375 57.0612 16.6959 59.8646C13.9308 69.0758 12.3623 78.6526 12.4249 88.1157C12.5554 98.5614 14.9604 106.991 19.4462 113.084C24.5191 119.88 34.4057 125.874 46.5725 129.592C51.8249 131.197 57.445 132.302 63.191 132.746C71.1183 133.419 79.2365 132.489 87.1891 129.935C93.7676 127.845 100.102 124.487 105.92 120.005C115.715 112.767 123.035 103.373 128.792 95.0763L130.055 95.4623C137.634 97.7781 143.461 95.5359 146.992 93.2043C149.297 91.8102 151.258 89.8733 153.006 87.4344L154.115 85.6746L153.189 84.1672ZM31.4002 55.613L43.1017 59.1882C43.6336 59.3508 44.3338 58.9526 44.5502 58.2317L48.3493 45.5764C48.5416 44.9356 48.2686 44.1526 47.6702 43.9698L35.9688 40.3945C35.3704 40.2117 34.7367 40.6302 34.5203 41.351L30.7212 54.0064C30.5713 54.7476 30.8019 55.4302 31.4002 55.613ZM47.5562 60.5493L59.2576 64.1245C59.7895 64.2871 60.4897 63.8889 60.7061 63.168L64.5052 50.5126C64.6976 49.8719 64.4246 49.0889 63.8262 48.9061L52.1248 45.3308C51.5264 45.148 50.8927 45.5665 50.6763 46.2873L46.8772 58.9427C46.7272 59.6839 46.9578 60.3665 47.5562 60.5493ZM63.9781 65.5668L75.6131 69.1218C76.2779 69.3249 76.9116 68.9064 77.128 68.1856L80.9271 55.5302C81.1195 54.8894 80.913 54.1268 80.1816 53.9033L68.5467 50.3484C68.0148 50.1858 67.3811 50.6043 67.1647 51.3252L63.3656 63.9806C63.1491 64.7014 63.3797 65.384 63.9781 65.5668ZM80.2006 70.5234L91.9685 74.119C92.5004 74.2815 93.1341 73.863 93.3505 73.1422L97.1496 60.4868C97.3419 59.846 97.1354 59.0834 96.537 58.9005L84.7691 55.305C84.2372 55.1425 83.6035 55.5609 83.3871 56.2818L79.588 68.9372C79.3716 69.6581 79.6687 70.3609 80.2006 70.5234ZM52.9423 42.6075L64.6437 46.1828C65.1756 46.3453 65.9239 45.7869 66.1403 45.066L69.9154 32.4908C70.1318 31.7699 69.8347 31.067 69.2363 30.8842L57.5349 27.3089C56.9365 27.1261 56.3269 27.4645 56.0864 28.2655L52.3113 40.8407C52.1614 41.5819 52.3439 42.4247 52.9423 42.6075ZM69.3642 47.6251L80.9991 51.18C81.664 51.3831 82.3458 50.8045 82.5622 50.0836L86.3373 37.5083C86.5537 36.7874 86.3231 36.1049 85.5917 35.8814L73.9568 32.3265C73.4249 32.164 72.8152 32.5024 72.5748 33.3033L68.7997 45.8786C68.5833 46.5995 68.7658 47.4422 69.3642 47.6251ZM85.5866 52.5817L97.3546 56.1772C97.8864 56.3397 98.5682 55.7611 98.7847 55.0402L102.56 42.4649C102.776 41.744 102.479 41.0412 101.947 40.8787L90.1792 37.2831C89.6474 37.1206 89.0377 37.459 88.7972 38.2599L85.0222 50.8352C84.8058 51.5561 85.0548 52.4191 85.5866 52.5817ZM91.0689 34.3195L102.837 37.9151C103.369 38.0776 104.002 37.6591 104.219 36.9382L107.97 24.443C108.21 23.6421 107.913 22.9392 107.381 22.7767L95.6134 19.1811C95.0815 19.0186 94.4719 19.357 94.2074 20.2381L90.4563 32.7332C90.264 33.374 90.537 34.157 91.0689 34.3195ZM96.556 75.5207L108.257 79.0959C108.856 79.2788 109.489 78.8603 109.706 78.1394L113.505 65.484C113.697 64.8433 113.424 64.0603 112.826 63.8775L101.125 60.3022C100.593 60.1397 99.9589 60.5582 99.7425 61.279L95.9434 73.9344C95.727 74.6553 96.0241 75.3582 96.556 75.5207Z" fill="#C7C7C7"/>
</svg>
