<svg preserveAspectRatio="none" width="164" height="165" viewBox="0 0 164 165" fill="none" xmlns="http://www.w3.org/2000/svg">
<path d="M141.463 58.6639L69.9467 20.2439C68.9674 19.7173 67.8908 19.3885 66.7786 19.276C65.6663 19.1635 64.5401 19.2697 63.4644 19.5884C62.3886 19.9071 61.3844 20.4321 60.509 21.1334C59.6337 21.8348 58.9043 22.6987 58.3627 23.6758L50.1503 38.4828L68.9871 48.6041C70.543 47.5108 72.3727 46.8699 74.2673 46.7543C76.1619 46.6387 78.0452 47.0531 79.7021 47.9504C81.3591 48.8476 82.723 50.1914 83.6382 51.8284C84.5534 53.4655 84.983 55.3299 84.878 57.2087L103.031 66.9693C104.906 65.6258 107.178 64.9501 109.475 65.0533C111.772 65.1566 113.957 66.0327 115.669 67.5374C117.38 69.042 118.518 71.0856 118.894 73.3315C119.269 75.5774 118.861 77.8919 117.735 79.8937C116.604 81.9479 114.793 83.557 112.612 84.4461C110.43 85.3353 108.013 85.4493 105.774 84.7688C103.534 84.0882 101.612 82.6553 100.334 80.7148C99.0561 78.7743 98.5025 76.4466 98.7678 74.1292L81.843 65.0287L91.7977 99.2267C94.0797 99.612 96.1509 100.763 97.6659 102.487C99.1809 104.211 100.048 106.404 100.123 108.701C100.199 110.999 99.477 113.261 98.0788 115.111C96.6807 116.961 94.6906 118.287 92.4401 118.869C90.1897 119.45 87.8149 119.251 85.7116 118.306C83.6083 117.36 81.9035 115.725 80.8814 113.672C79.8594 111.619 79.5817 109.274 80.0948 107.026C80.6079 104.778 81.8808 102.763 83.7011 101.318L73.655 66.806C72.3245 66.6767 71.0358 66.2873 69.8634 65.6602C68.691 65.0331 67.6579 64.1807 66.8239 63.1522C65.9898 62.1237 65.3712 60.9394 65.0037 59.6676C64.6362 58.3958 64.5271 57.0616 64.6827 55.742L46.12 45.7614L18.9907 94.6754C18.4486 95.6523 18.1047 96.7233 17.9788 97.8273C17.8528 98.9313 17.9473 100.047 18.2567 101.11C18.5661 102.173 19.0845 103.162 19.7821 104.022C20.4797 104.882 21.343 105.596 22.3226 106.122L93.8413 144.55C94.8206 145.076 95.8971 145.405 97.0094 145.518C98.1216 145.63 99.2478 145.524 100.324 145.205C101.399 144.887 102.404 144.361 103.279 143.66C104.154 142.959 104.884 142.095 105.425 141.118L144.805 70.1158C145.347 69.139 145.691 68.0679 145.817 66.9639C145.943 65.8599 145.849 64.7445 145.539 63.6816C145.23 62.6186 144.711 61.6288 144.014 60.7688C143.316 59.9088 142.453 59.1954 141.473 58.6694" fill="#C7C7C7"/>
</svg>
